<svg id="圖層_1" data-name="圖層 1" xmlns="http://www.w3.org/2000/svg" viewBox="0 0 432.5 435.89"><defs><style>.cls-1,.cls-12,.cls-14,.cls-16,.cls-5,.cls-6{fill:none;}.cls-2{fill:#020202;}.cls-2,.cls-3,.cls-4,.cls-5,.cls-6,.cls-7,.cls-8{stroke:#000;}.cls-12,.cls-14,.cls-16,.cls-17,.cls-2,.cls-21,.cls-3,.cls-5,.cls-6,.cls-7,.cls-8{stroke-miterlimit:10;}.cls-18,.cls-3{fill:#e2d100;}.cls-3,.cls-5,.cls-7{stroke-width:8px;}.cls-4{fill:#f3fdff;stroke-miterlimit:10;stroke-width:6px;}.cls-7{fill:#ddcd3a;}.cls-21,.cls-9{fill:#fcfcfc;stroke:#fff;}.cls-9{stroke-miterlimit:10;}.cls-10,.cls-11,.cls-12{opacity:0.9;}.cls-10,.cls-11,.cls-12,.cls-13,.cls-14,.cls-15,.cls-16,.cls-17,.cls-19,.cls-20{isolation:isolate;}.cls-11,.cls-12,.cls-13,.cls-14,.cls-15,.cls-16{font-size:52.89px;}.cls-11,.cls-13,.cls-15{fill:#ceb70d;}.cls-11,.cls-12,.cls-13,.cls-14,.cls-15,.cls-16,.cls-19,.cls-20{font-family:ArialRoundedMTBold, Arial Rounded MT Bold;}.cls-12,.cls-14,.cls-16{stroke:#ceb70d;}.cls-13,.cls-14{letter-spacing:-0.06em;}.cls-17{fill:#aab208;stroke:#aab208;stroke-width:0.75px;opacity:0.68;}.cls-19{font-size:33.5px;}.cls-20{font-size:37.49px;}</style></defs><path class="cls-1" d="M157.29-412.76c0,77.83,102.79,140.83,229.81,140.83" transform="translate(-18.06 490.93)"/><path class="cls-1" d="M212.29-351.8" transform="translate(-18.06 490.93)"/><path class="cls-2" d="M300.21-349.8" transform="translate(-18.06 490.93)"/><path class="cls-3" d="M317.07-358.39H160.25v-4.83c11.15-31.69,39.42-53.93,71.7-56.51,36.73-2.93,72,20.13,85.12,56.51Z" transform="translate(-18.06 490.93)"/><rect class="cls-4" x="157.7" y="-356.94" width="197.08" height="10.31" transform="translate(504.21 483.59) rotate(-73.75)"/><line class="cls-5" x1="157.15" y1="132.54" x2="184.34" y2="270.28"/><line class="cls-5" x1="282.15" y1="132.54" x2="258.51" y2="270.28"/><line class="cls-6" x1="184.34" y1="270.28" x2="258.51" y2="270.28"/><path class="cls-7" d="M276.58-220.54H202.4q-8.13-42-16.25-84.08c28.49-20.76,39.73-21,44.74-17.4,9.24,6.65.13,28.48,10.13,35.7,8,5.8,23.21-1.56,34.14-8.15L291-304.32q-3.3,19.17-6.58,38.35Z" transform="translate(-18.06 490.93)"/><circle class="cls-8" cx="187.81" cy="212.7" r="5.77"/><circle class="cls-8" cx="185.51" cy="195.64" r="5.77"/><circle class="cls-8" cx="221.43" cy="248.19" r="5.77"/><circle class="cls-8" cx="211.44" cy="232.29" r="5.77"/><circle class="cls-8" cx="236.65" cy="259.73" r="5.77"/><circle class="cls-8" cx="190.11" cy="256.74" r="5.77"/><circle class="cls-8" cx="206.87" cy="240.36" r="3.47"/><circle class="cls-8" cx="231.02" cy="243.83" r="3.47"/><circle class="cls-8" cx="207.83" cy="249.8" r="3.47"/><circle class="cls-8" cx="202.77" cy="216.17" r="3.47"/><circle class="cls-8" cx="212.83" cy="263.2" r="3.47"/><circle class="cls-8" cx="224.19" cy="218.77" r="5.59"/><circle class="cls-8" cx="233.18" cy="229.78" r="3.47"/><circle class="cls-8" cx="191.28" cy="239.73" r="3.47"/><circle class="cls-8" cx="243.85" cy="213.18" r="3.47"/><circle class="cls-8" cx="198.19" cy="201.41" r="3.47"/><circle class="cls-8" cx="191.28" cy="226.31" r="3.47"/><circle class="cls-8" cx="193.58" cy="188.24" r="3.47"/><circle class="cls-8" cx="212.83" cy="206.24" r="3.47"/><rect class="cls-9" x="256.19" y="-274.73" width="33.03" height="9.18" rx="2.37" transform="translate(456.11 547.52) rotate(-76.93)"/><g class="cls-10"><text class="cls-11" transform="translate(91.62 326.31) scale(1.01 1)">Gululu </text><text class="cls-12" transform="translate(91.62 326.31) scale(1.01 1)">Gululu </text><text class="cls-13" transform="translate(273.04 326.31) scale(1.01 1)">T</text><text class="cls-14" transform="translate(273.04 326.31) scale(1.01 1)">T</text><text class="cls-15" transform="translate(303.05 326.31) scale(1.01 1)">ea</text><text class="cls-16" transform="translate(303.05 326.31) scale(1.01 1)">ea</text></g><circle class="cls-1" cx="216.25" cy="219.64" r="216.25"/><path class="cls-17" d="M77.06-407.62l10.39-12.31,3.08,2.6L80.14-405Zm5.25-3.4L85-414.18,100.58-401l-2.67,3.16Z" transform="translate(-18.06 490.93)"/><path class="cls-17" d="M89.66-422.06l2.92-2.87,15.59,15.79-3,2.91Zm15.3,2.6a2.38,2.38,0,0,0-1.73-.82,2.56,2.56,0,0,0-1.78.85,2.34,2.34,0,0,0-.81,1.71,2.57,2.57,0,0,0,.83,1.74l-2.69-2.27a6.35,6.35,0,0,1-.37-2.8,4.23,4.23,0,0,1,1.25-2.28,4.67,4.67,0,0,1,3.92-1.49,7.34,7.34,0,0,1,4.32,2.44l6.75,6.84-3,2.91Z" transform="translate(-18.06 490.93)"/><path class="cls-17" d="M119.17-420.27a5.64,5.64,0,0,1-3.44-.29,8.09,8.09,0,0,1-3.15-2.37l-1.15-1.37a9.23,9.23,0,0,1-2-3.6,5.69,5.69,0,0,1,.18-3.46,7.59,7.59,0,0,1,2.31-3.06,6.06,6.06,0,0,1,3.41-1.51A6.48,6.48,0,0,1,119-435a13,13,0,0,1,3.64,3.17l.67.8-8.24,6.88-1.81-2.17,5.34-4.46-.27-.25a3.75,3.75,0,0,0-2-1.08,2.4,2.4,0,0,0-1.89.6,3,3,0,0,0-1.2,2.18,3.7,3.7,0,0,0,1,2.49l1.31,1.55a3.38,3.38,0,0,0,2.3,1.35,3.4,3.4,0,0,0,2.5-.94,4.54,4.54,0,0,0,1.07-1.28,5.17,5.17,0,0,0,.6-1.6l3.63.13a9,9,0,0,1-1,3.1,7.87,7.87,0,0,1-2,2.45A8.21,8.21,0,0,1,119.17-420.27Z" transform="translate(-18.06 490.93)"/><path class="cls-17" d="M124.72-451.93l3.5-2.22,11.89,18.74-3.53,2.26ZM136-437.56l5.92-3.76a3.19,3.19,0,0,0,1.48-1.77,2.44,2.44,0,0,0-.38-2.06h0a2.69,2.69,0,0,0-1.06-1,2.23,2.23,0,0,0-1.35-.22,3.75,3.75,0,0,0-1.53.6L133.15-442l-2.16-3.4,5.92-3.76a2.77,2.77,0,0,0,1.33-1.62,2.33,2.33,0,0,0-.4-1.93,2,2,0,0,0-1.48-1,3,3,0,0,0-2,.56l-5.92,3.76-2.16-3.4,6-3.83a8.53,8.53,0,0,1,3.45-1.36,5.09,5.09,0,0,1,3.05.51,6.44,6.44,0,0,1,2.4,2.32A4.88,4.88,0,0,1,142-453a4.28,4.28,0,0,1-.36,2.18,6,6,0,0,1-1.5,2,5.79,5.79,0,0,1,2.58-.58,4.3,4.3,0,0,1,2.29.69,5.63,5.63,0,0,1,1.84,1.89h0a6.42,6.42,0,0,1,1.09,3.19,5.09,5.09,0,0,1-.85,3,8.37,8.37,0,0,1-2.7,2.56l-6.25,4Z" transform="translate(-18.06 490.93)"/><path class="cls-17" d="M155.21-445.07a5.62,5.62,0,0,1-3.29-1,8.1,8.1,0,0,1-2.51-3l-.82-1.59a9.22,9.22,0,0,1-1.12-3.94,5.78,5.78,0,0,1,.93-3.33,7.56,7.56,0,0,1,2.93-2.48,6,6,0,0,1,3.6-.7,6.33,6.33,0,0,1,3.37,1.66,13.19,13.19,0,0,1,2.86,3.89l.48.93-9.54,4.91-1.3-2.51,6.18-3.18-.2-.31a3.62,3.62,0,0,0-1.74-1.49,2.35,2.35,0,0,0-2,.17,3,3,0,0,0-1.65,1.87,3.69,3.69,0,0,0,.44,2.64l.92,1.79a3.34,3.34,0,0,0,1.94,1.82,3.46,3.46,0,0,0,2.65-.37,5,5,0,0,0,2.25-2.45l3.52.92a8.83,8.83,0,0,1-1.64,2.81,8.08,8.08,0,0,1-2.46,2A8.34,8.34,0,0,1,155.21-445.07Z" transform="translate(-18.06 490.93)"/><path class="cls-17" d="M170.39-451.76a13.25,13.25,0,0,1-2.59.28,8.91,8.91,0,0,1-2.35-.3l1.13-4a10,10,0,0,0,2.62.13,7.77,7.77,0,0,0,2.33-.55,6,6,0,0,0,1.95-1.17c.41-.41.54-.79.39-1.15a1,1,0,0,0-.63-.61,2.41,2.41,0,0,0-1,0c-.36.07-.86.21-1.48.4l-.54.16-.54.16h-.25a16.87,16.87,0,0,1-2.81.57,3.61,3.61,0,0,1-2.15-.5,4.56,4.56,0,0,1-1.75-2.28,4.49,4.49,0,0,1,1-5.22,9.24,9.24,0,0,1,3-1.89,12.25,12.25,0,0,1,4.66-.92,10.83,10.83,0,0,1,2.28.24l-1.1,3.75a10.09,10.09,0,0,0-2.33,0,8.1,8.1,0,0,0-2.1.53,5.18,5.18,0,0,0-1.69,1,1,1,0,0,0-.33,1,.69.69,0,0,0,.58.42,2.79,2.79,0,0,0,1-.06c.37-.08.89-.22,1.58-.41l.26-.08.26-.08a.28.28,0,0,0,.13,0h.13a18.21,18.21,0,0,1,3-.64,3.85,3.85,0,0,1,2.33.48,4.63,4.63,0,0,1,1.89,2.42,4.94,4.94,0,0,1,.36,2.91,4.8,4.8,0,0,1-1.43,2.54,9.69,9.69,0,0,1-3.12,2A14.91,14.91,0,0,1,170.39-451.76Z" transform="translate(-18.06 490.93)"/><path class="cls-17" d="M175.65-470.93l7.26-2.51,1.16,3.38-7.25,2.5Zm7.28,13.2a4.66,4.66,0,0,1-1.93-2.65l-5.32-15.44,3.91-1.35,5,14.46a1.61,1.61,0,0,0,.51.77.76.76,0,0,0,.73.08l1-.34,1.31,3.81-2,.68a3.87,3.87,0,0,1-3.21,0Z" transform="translate(-18.06 490.93)"/><path class="cls-17" d="M194.4-483.51l4-.9,4.81,21.67-4,.9Zm6,17.28,5.15-1.14a4.66,4.66,0,0,0,2.87-1.65,3.52,3.52,0,0,0,.49-3l-1.42-6.38a3.55,3.55,0,0,0-1.7-2.5,4.59,4.59,0,0,0-3.3-.28L197.34-480l-.87-3.93,5.06-1.13a10.86,10.86,0,0,1,4.78-.1,6.44,6.44,0,0,1,3.48,2,8.58,8.58,0,0,1,1.92,4l1.36,6.14a8.47,8.47,0,0,1,0,4.3,6.57,6.57,0,0,1-2.25,3.34,10.45,10.45,0,0,1-4.45,2l-5,1.12Z" transform="translate(-18.06 490.93)"/><path class="cls-17" d="M216.22-481.49l4.4-.61,2.17,15.7-4.4.61Zm8.55,2.81a3.35,3.35,0,0,0-1,0A2.42,2.42,0,0,0,222-477.6a3.46,3.46,0,0,0-.37,2.34l-.88-4a5.78,5.78,0,0,1,1.37-2.42,3.74,3.74,0,0,1,2.15-1.09,4.74,4.74,0,0,1,1.8.07,3.8,3.8,0,0,1,1.5.72l-1.94,3.65A1.79,1.79,0,0,0,224.77-478.68Z" transform="translate(-18.06 490.93)"/><path class="cls-17" d="M229.08-489.5l4.13-.36.36,4.17-4.13.36Zm.55,6.33,4.13-.36,1.38,15.78-4.12.36Z" transform="translate(-18.06 490.93)"/><path class="cls-17" d="M238.23-483.93l4.13-.11.44,15.84-4.14.11Zm9.23,6a2.34,2.34,0,0,0-.71-1.78,2.56,2.56,0,0,0-1.88-.59,2.39,2.39,0,0,0-1.76.7,2.5,2.5,0,0,0-.57,1.84l-.42-3.5a6,6,0,0,1,1.64-2.29,4,4,0,0,1,2.47-.82,4.66,4.66,0,0,1,3.88,1.58,7.39,7.39,0,0,1,1.49,4.73l.26,9.62-4.14.11Z" transform="translate(-18.06 490.93)"/><path class="cls-17" d="M256.69-490.54l4.14.22-1.18,22.17-4.14-.22Zm1.06,16.61,7.84-9.73,4.38.23-11.91,14.1Zm3.84-2.27,3.52-1.89,4.79,10.52-4.79-.25Z" transform="translate(-18.06 490.93)"/><path class="cls-17" d="M274.67-466.93a12.35,12.35,0,0,1-2.38-1.06,9.25,9.25,0,0,1-1.88-1.43l2.95-2.86a10.29,10.29,0,0,0,2.22,1.35,7.63,7.63,0,0,0,2.28.7,6.71,6.71,0,0,0,2.28,0c.56-.15.86-.42.91-.8a1,1,0,0,0-.24-.85,2,2,0,0,0-.83-.5,14.16,14.16,0,0,0-1.49-.4l-.54-.14-.55-.13h-.25a18.56,18.56,0,0,1-2.72-.93,3.65,3.65,0,0,1-1.6-1.51,4.49,4.49,0,0,1-.37-2.84,4.91,4.91,0,0,1,1.12-2.6,4.77,4.77,0,0,1,2.4-1.42,9.27,9.27,0,0,1,3.52-.13,12,12,0,0,1,4.5,1.55,9.86,9.86,0,0,1,1.85,1.35L283-476.93a9.78,9.78,0,0,0-2-1.17,7.49,7.49,0,0,0-2.09-.6,5.18,5.18,0,0,0-2,0c-.49.13-.75.37-.79.72a.69.69,0,0,0,.28.66,2.94,2.94,0,0,0,.87.43c.36.12.88.26,1.57.43l.27.07.26.07h.27a17.92,17.92,0,0,1,2.88.93,3.8,3.8,0,0,1,1.77,1.59,4.65,4.65,0,0,1,.41,3,5,5,0,0,1-1.1,2.87,4.85,4.85,0,0,1-2.51,1.48,9.75,9.75,0,0,1-3.69.14A15,15,0,0,1,274.67-466.93Z" transform="translate(-18.06 490.93)"/><path class="cls-17" d="M299.11-462.53l-4.18-1,5-21.62,4.18,1Z" transform="translate(-18.06 490.93)"/><path class="cls-17" d="M307.44-476.84l4,1.19-4.54,15.18-4-1.19Zm6.9,8.58a2.4,2.4,0,0,0-.11-1.91,2.56,2.56,0,0,0-1.61-1.15,2.35,2.35,0,0,0-1.89.11,2.6,2.6,0,0,0-1.12,1.57l.7-3.46a6,6,0,0,1,2.28-1.66,4,4,0,0,1,2.59,0,4.62,4.62,0,0,1,3.2,2.71,7.4,7.4,0,0,1-.07,5l-2.76,9.22-4-1.19Z" transform="translate(-18.06 490.93)"/><path class="cls-17" d="M337.7-471.17l3.8,1.65-8.09,18.7-3.8-1.64Zm-4.77-4,14.79,6.4-1.6,3.7-14.79-6.4Z" transform="translate(-18.06 490.93)"/><path class="cls-17" d="M339.69-449.07a4.93,4.93,0,0,1,.58-3.84,4.4,4.4,0,0,1,2.87-2.49,6.31,6.31,0,0,1,4.26.88l3.49,1.81-1.28,2.93-3.66-1.9a2.2,2.2,0,0,0-1.42-.31,1.38,1.38,0,0,0-.94.79,1.31,1.31,0,0,0,0,1.3,3.6,3.6,0,0,0,1.42,1.15,6.12,6.12,0,0,0,2.37.8,1.24,1.24,0,0,0,1.26-.69l-.78,2.19a2.1,2.1,0,0,1-1.35.93,4.24,4.24,0,0,1-1.94,0,8.2,8.2,0,0,1-2.08-.74A5.21,5.21,0,0,1,339.69-449.07Zm11.39-4.3a2,2,0,0,0,.13-1.84,3,3,0,0,0-1.55-1.47,5.36,5.36,0,0,0-1.67-.54,5,5,0,0,0-1.73,0l-1.11-3.44a6,6,0,0,1,3-.36,9.2,9.2,0,0,1,3.32,1,8.08,8.08,0,0,1,2.79,2.23,4.92,4.92,0,0,1,1,2.81,6.2,6.2,0,0,1-.78,3.18l-4.68,9-3.35-1.73Z" transform="translate(-18.06 490.93)"/><path class="cls-17" d="M360.92-454.53l3.57,2.12-8.09,13.63-3.56-2.12Zm3.24-5.46,3.57,2.12-2.14,3.59L362-456.39Z" transform="translate(-18.06 490.93)"/><path class="cls-17" d="M367.43-450.93l3.25,2.28L367.35-439l8.32-6.12,2,1.41-2.9,9.91,7.89-6.42,3.25,2.28-13,10.21-2.53-1.77,3.17-10.4-8.69,6.53-2.53-1.76Z" transform="translate(-18.06 490.93)"/><path class="cls-17" d="M379.45-423.83a5,5,0,0,1,1.43-3.62,4.36,4.36,0,0,1,3.34-1.8,6.46,6.46,0,0,1,4,1.81l3,2.54-1.89,2.57L386.17-425a2.15,2.15,0,0,0-1.31-.62,1.39,1.39,0,0,0-1.09.56,1.29,1.29,0,0,0-.3,1.27,3.5,3.5,0,0,0,1.12,1.43,6.31,6.31,0,0,0,2.14,1.31,1.25,1.25,0,0,0,1.38-.39l-1.24,2a2.14,2.14,0,0,1-1.53.61,4.43,4.43,0,0,1-1.89-.43,8,8,0,0,1-1.87-1.18A5.26,5.26,0,0,1,379.45-423.83Zm12.06-1.67a2,2,0,0,0,.54-1.76,3.13,3.13,0,0,0-1.18-1.79,5.55,5.55,0,0,0-1.52-.9,4.87,4.87,0,0,0-1.69-.36l-.31-3.61a6.25,6.25,0,0,1,3,.31,9.42,9.42,0,0,1,3,1.75,7.86,7.86,0,0,1,2.23,2.79,4.92,4.92,0,0,1,.39,3,6.24,6.24,0,0,1-1.47,2.92l-6.57,7.78-2.88-2.43Z" transform="translate(-18.06 490.93)"/><path class="cls-17" d="M401.78-424.12l2.93,2.93-11.2,11.26-2.93-3Zm2,10.83a2.33,2.33,0,0,0,.81-1.74,2.54,2.54,0,0,0-.87-1.78,2.32,2.32,0,0,0-1.71-.79,2.52,2.52,0,0,0-1.73.85l2.25-2.71a6.06,6.06,0,0,1,2.79-.39,4,4,0,0,1,2.29,1.23,4.6,4.6,0,0,1,1.52,3.91,7.3,7.3,0,0,1-2.41,4.33l-6.79,6.81L397-406.5Z" transform="translate(-18.06 490.93)"/><rect class="cls-18" x="37.03" y="174.9" width="117.53" height="39" rx="10.74"/><rect class="cls-18" x="283.67" y="172.91" width="120.65" height="41.54" rx="10.74"/><text class="cls-19" transform="translate(43.72 206.83)">SINCE</text><text class="cls-20" transform="translate(299.44 207.96)">2022</text><circle class="cls-21" cx="248.72" cy="246.33" r="6.2"/></svg>