<?xml version="1.0" encoding="utf-8"?>
<!-- Generator: Adobe Illustrator 25.0.0, SVG Export Plug-In . SVG Version: 6.00 Build 0)  -->
<svg version="1.1" id="圖層_1" xmlns="http://www.w3.org/2000/svg" xmlns:xlink="http://www.w3.org/1999/xlink" x="0px" y="0px"
	 viewBox="0 0 432.5 435.9" style="enable-background:new 0 0 432.5 435.9;" xml:space="preserve">
<style type="text/css">
	.st0{fill:none;}
	.st1{fill:#020202;stroke:#000000;stroke-miterlimit:10;}
	.st2{fill:#E2D100;stroke:#000000;stroke-width:8;stroke-miterlimit:10;}
	.st3{fill:#F3FDFF;stroke:#000000;stroke-width:6;stroke-miterlimit:10;}
	.st4{fill:none;stroke:#000000;stroke-width:8;stroke-miterlimit:10;}
	.st5{fill:none;stroke:#000000;stroke-miterlimit:10;}
	.st6{fill:#DDCD3A;stroke:#000000;stroke-width:8;stroke-miterlimit:10;}
	.st7{stroke:#000000;stroke-miterlimit:10;}
	.st8{fill:#FCFCFC;stroke:#FFFFFF;stroke-miterlimit:10;}
	.st9{opacity:0.9;fill:#CEB70D;enable-background:new    ;}
	.st10{font-family:'ArialRoundedMTBold';}
	.st11{font-size:52.89px;}
	.st12{opacity:0.9;fill:none;stroke:#CEB70D;stroke-miterlimit:10;enable-background:new    ;}
	.st13{fill:#CEB70D;}
	.st14{letter-spacing:-3;}
	.st15{fill:none;stroke:#CEB70D;stroke-miterlimit:10;}
	.st16{opacity:0.68;fill:#AAB208;stroke:#AAB208;stroke-width:0.75;stroke-miterlimit:10;enable-background:new    ;}
	.st17{fill:#E2D100;}
	.st18{font-size:33.5px;}
	.st19{font-size:37.49px;}
</style>
<path class="st0" d="M127.9,104.6c0,77.8,102.8,140.8,229.8,140.8"/>
<path class="st0" d="M182.9,165.5"/>
<path class="st1" d="M270.8,167.5"/>
<path class="st2" d="M287.7,158.9H130.8v-4.8c11.2-31.7,39.4-53.9,71.7-56.5c36.7-2.9,72,20.1,85.1,56.5V158.9z"/>
<rect x="128.3" y="160.4" transform="matrix(0.2798 -0.96 0.96 0.2798 4.4267 336.9814)" class="st3" width="197.1" height="10.3"/>
<line class="st4" x1="145.8" y1="158.9" x2="173" y2="296.7"/>
<line class="st4" x1="270.8" y1="158.9" x2="247.2" y2="296.7"/>
<line class="st5" x1="173" y1="296.7" x2="247.2" y2="296.7"/>
<path class="st6" d="M247.2,296.8H173c-5.4-28-10.8-56-16.2-84.1c28.5-20.8,39.7-21,44.7-17.4c9.2,6.7,0.1,28.5,10.1,35.7
	c8,5.8,23.2-1.6,34.1-8.2l15.8-9.8c-2.2,12.8-4.4,25.6-6.6,38.3L247.2,296.8z"/>
<circle class="st7" cx="176.5" cy="239.1" r="5.8"/>
<circle class="st7" cx="174.2" cy="222" r="5.8"/>
<circle class="st7" cx="210.1" cy="274.6" r="5.8"/>
<circle class="st7" cx="200.1" cy="258.7" r="5.8"/>
<circle class="st7" cx="225.3" cy="286.1" r="5.8"/>
<circle class="st7" cx="178.8" cy="283.1" r="5.8"/>
<circle class="st7" cx="195.5" cy="266.8" r="3.5"/>
<circle class="st7" cx="219.7" cy="270.2" r="3.5"/>
<circle class="st7" cx="196.5" cy="276.2" r="3.5"/>
<circle class="st7" cx="191.4" cy="242.6" r="3.5"/>
<circle class="st7" cx="201.5" cy="289.6" r="3.5"/>
<circle class="st7" cx="212.8" cy="245.2" r="5.6"/>
<circle class="st7" cx="221.8" cy="256.2" r="3.5"/>
<circle class="st7" cx="179.9" cy="266.1" r="3.5"/>
<circle class="st7" cx="232.5" cy="239.6" r="3.5"/>
<circle class="st7" cx="186.8" cy="227.8" r="3.5"/>
<circle class="st7" cx="179.9" cy="252.7" r="3.5"/>
<circle class="st7" cx="182.2" cy="214.6" r="3.5"/>
<circle class="st7" cx="201.5" cy="232.6" r="3.5"/>
<path class="st8" d="M244.9,230.6l4.3,1c1.3,0.3,2.1,1.6,1.8,2.8l-6.4,27.6c-0.3,1.3-1.6,2.1-2.8,1.8l-4.3-1
	c-1.3-0.3-2.1-1.6-1.8-2.8l6.4-27.6C242.3,231.1,243.6,230.3,244.9,230.6z"/>
<text transform="matrix(1.01 0 0 1 80.2697 352.7097)" class="st9 st10 st11">Gululu </text>
<text transform="matrix(1.01 0 0 1 80.2697 352.7097)" class="st12 st10 st11">Gululu </text>
<text transform="matrix(1.01 0 0 1 261.6857 352.7097)" class="st13 st10 st11 st14">T</text>
<text transform="matrix(1.01 0 0 1 261.6857 352.7097)" class="st15 st10 st11 st14">T</text>
<text transform="matrix(1.01 0 0 1 291.7028 352.7097)" class="st13 st10 st11">ea</text>
<text transform="matrix(1.01 0 0 1 291.7028 352.7097)" class="st15 st10 st11">ea</text>
<circle class="st0" cx="204.9" cy="246" r="216.2"/>
<path class="st16" d="M47.6,109.7L58,97.4l3.1,2.6l-10.4,12.3L47.6,109.7z M52.9,106.3l2.7-3.2l15.6,13.1l-2.7,3.2L52.9,106.3z"/>
<path class="st16" d="M60.2,95.3l2.9-2.9l15.6,15.8l-3,2.9L60.2,95.3z M75.5,97.9c-0.4-0.5-1.1-0.8-1.7-0.8c-0.7,0-1.3,0.3-1.8,0.9
	c-0.5,0.4-0.8,1.1-0.8,1.7c0,0.7,0.3,1.3,0.8,1.7l-2.7-2.3c-0.3-0.9-0.5-1.9-0.4-2.8c0.2-0.9,0.6-1.7,1.2-2.3c1-1.1,2.5-1.6,3.9-1.5
	c1.7,0.3,3.2,1.2,4.3,2.4l6.8,6.8l-3,2.9L75.5,97.9z"/>
<path class="st16" d="M89.8,97.1c-1.1,0.3-2.4,0.2-3.4-0.3c-1.2-0.5-2.3-1.3-3.2-2.4L82,93c-0.9-1-1.6-2.3-2-3.6
	c-0.3-1.1-0.2-2.4,0.2-3.5c0.5-1.2,1.3-2.3,2.3-3.1c0.9-0.9,2.1-1.4,3.4-1.5c1.3-0.1,2.5,0.2,3.7,0.9c1.4,0.8,2.6,1.9,3.6,3.2
	l0.7,0.8l-8.2,6.9L83.9,91l5.3-4.5l-0.3-0.2c-0.5-0.6-1.2-0.9-2-1.1c-0.7-0.1-1.4,0.1-1.9,0.6c-0.7,0.5-1.1,1.3-1.2,2.2
	c0,0.9,0.4,1.8,1,2.5l1.3,1.5c0.5,0.7,1.4,1.2,2.3,1.4c0.9,0,1.8-0.3,2.5-0.9c0.4-0.4,0.8-0.8,1.1-1.3c0.3-0.5,0.5-1,0.6-1.6
	l3.6,0.1c-0.1,1.1-0.5,2.1-1,3.1c-0.5,0.9-1.2,1.8-2,2.5C92.3,96.1,91.1,96.7,89.8,97.1z"/>
<path class="st16" d="M95.3,65.4l3.5-2.2l11.9,18.7l-3.5,2.3L95.3,65.4z M106.6,79.8l5.9-3.8c0.7-0.4,1.2-1,1.5-1.8
	c0.2-0.7,0-1.5-0.4-2.1l0,0c-0.3-0.4-0.6-0.8-1.1-1c-0.4-0.2-0.9-0.3-1.3-0.2c-0.5,0.1-1.1,0.3-1.5,0.6l-5.9,3.8l-2.2-3.4l5.9-3.8
	c0.6-0.3,1.1-0.9,1.3-1.6c0.2-0.7,0-1.4-0.4-1.9c-0.3-0.5-0.9-0.9-1.5-1c-0.7-0.1-1.4,0.1-2,0.6L99,67.9l-2.2-3.4l6-3.8
	c1-0.7,2.2-1.2,3.5-1.4c1-0.2,2.1,0,3,0.5c1,0.5,1.8,1.3,2.4,2.3c0.4,0.7,0.7,1.4,0.8,2.2c0.1,0.7-0.1,1.5-0.4,2.2
	c-0.4,0.8-0.9,1.4-1.5,2c0.8-0.4,1.7-0.6,2.6-0.6c0.8,0,1.6,0.3,2.3,0.7c0.8,0.5,1.4,1.1,1.8,1.9l0,0c0.6,0.9,1,2,1.1,3.2
	c0,1.1-0.3,2.1-0.8,3c-0.7,1-1.6,1.9-2.7,2.6l-6.2,4L106.6,79.8z"/>
<path class="st16" d="M125.8,72.3c-1.2,0-2.3-0.3-3.3-1c-1.1-0.8-1.9-1.8-2.5-3l-0.8-1.6c-0.7-1.2-1.1-2.6-1.1-3.9
	c0-1.2,0.3-2.3,0.9-3.3c0.7-1.1,1.8-1.9,2.9-2.5c1.1-0.6,2.4-0.8,3.6-0.7c1.3,0.2,2.4,0.8,3.4,1.7c1.2,1.1,2.2,2.4,2.9,3.9l0.5,0.9
	l-9.5,4.9l-1.3-2.5l6.2-3.2l-0.2-0.3c-0.4-0.7-1-1.2-1.7-1.5c-0.7-0.2-1.4-0.2-2,0.2c-0.8,0.4-1.4,1-1.7,1.9c-0.2,0.9,0,1.8,0.4,2.6
	l0.9,1.8c0.4,0.8,1.1,1.5,1.9,1.8c0.9,0.2,1.9,0.1,2.7-0.4c1-0.5,1.8-1.4,2.3-2.5l3.5,0.9c-0.4,1-0.9,2-1.6,2.8
	c-0.7,0.8-1.5,1.5-2.5,2C128.4,71.9,127.1,72.3,125.8,72.3z"/>
<path class="st16" d="M141,65.6c-0.9,0.2-1.7,0.3-2.6,0.3c-0.8,0-1.6-0.1-2.3-0.3l1.1-4c0.9,0.2,1.7,0.2,2.6,0.1
	c0.8-0.1,1.6-0.2,2.3-0.5c0.7-0.3,1.4-0.7,2-1.2c0.4-0.4,0.5-0.8,0.4-1.1c-0.1-0.3-0.3-0.5-0.6-0.6c-0.3-0.1-0.7-0.1-1,0
	c-0.4,0.1-0.9,0.2-1.5,0.4l-0.5,0.2l-0.5,0.2h-0.1H140c-0.9,0.3-1.9,0.5-2.8,0.6c-0.8,0.1-1.5-0.1-2.2-0.5c-0.8-0.5-1.4-1.3-1.8-2.3
	c-0.8-1.8-0.4-3.9,1-5.2c0.9-0.8,1.9-1.5,3-1.9c1.5-0.6,3.1-0.9,4.7-0.9c0.8,0,1.5,0.1,2.3,0.2l-1.1,3.8c-0.8-0.1-1.6-0.1-2.3,0
	c-0.7,0.1-1.4,0.3-2.1,0.5c-0.6,0.2-1.2,0.6-1.7,1c-0.3,0.2-0.4,0.6-0.3,1c0.1,0.2,0.3,0.4,0.6,0.4c0.3,0,0.7,0,1-0.1
	c0.4-0.1,0.9-0.2,1.6-0.4l0.3-0.1l0.3-0.1c0,0,0.1,0,0.1,0h0.1c1-0.3,2-0.5,3-0.6c0.8-0.1,1.6,0.1,2.3,0.5c0.9,0.6,1.5,1.4,1.9,2.4
	c0.4,0.9,0.5,1.9,0.4,2.9c-0.2,1-0.7,1.9-1.4,2.5c-0.9,0.9-2,1.5-3.1,2C142.8,65.1,141.9,65.4,141,65.6z"/>
<path class="st16" d="M146.2,46.4l7.3-2.5l1.2,3.4l-7.2,2.5L146.2,46.4z M153.5,59.6c-0.9-0.6-1.6-1.6-1.9-2.6l-5.3-15.4l3.9-1.4
	l5,14.5c0.1,0.3,0.3,0.6,0.5,0.8c0.2,0.1,0.5,0.2,0.7,0.1l1-0.3l1.3,3.8l-2,0.7C155.7,60.1,154.5,60.1,153.5,59.6L153.5,59.6z"/>
<path class="st16" d="M165,33.8l4-0.9l4.8,21.7l-4,0.9L165,33.8z M171,51.1l5.2-1.1c1.1-0.2,2.1-0.8,2.9-1.6c0.6-0.9,0.8-2,0.5-3
	l-1.4-6.4c-0.2-1-0.8-2-1.7-2.5c-1-0.5-2.2-0.6-3.3-0.3l-5.2,1.1l-0.9-3.9l5.1-1.1c1.6-0.4,3.2-0.4,4.8-0.1c1.3,0.3,2.6,1,3.5,2
	c1,1.1,1.6,2.5,1.9,4l1.4,6.1c0.4,1.4,0.3,2.9,0,4.3c-0.4,1.3-1.2,2.5-2.2,3.3c-1.3,1-2.8,1.7-4.5,2l-5,1.1L171,51.1z"/>
<path class="st16" d="M186.8,35.8l4.4-0.6l2.2,15.7l-4.4,0.6L186.8,35.8z M195.4,38.6c-0.3-0.1-0.7-0.1-1,0
	c-0.7,0.1-1.4,0.5-1.8,1.1c-0.4,0.7-0.5,1.5-0.4,2.3l-0.9-4c0.3-0.9,0.7-1.7,1.4-2.4c0.6-0.6,1.3-1,2.2-1.1c0.6-0.1,1.2-0.1,1.8,0.1
	c0.5,0.1,1.1,0.4,1.5,0.7l-1.9,3.7C195.9,38.8,195.7,38.7,195.4,38.6z"/>
<path class="st16" d="M199.7,27.8l4.1-0.4l0.4,4.2L200,32L199.7,27.8z M200.2,34.2l4.1-0.4l1.4,15.8l-4.1,0.4L200.2,34.2z"/>
<path class="st16" d="M208.8,33.4l4.1-0.1l0.4,15.8l-4.1,0.1L208.8,33.4z M218,39.4c0-0.7-0.2-1.3-0.7-1.8c-0.5-0.4-1.2-0.7-1.9-0.6
	c-0.7,0-1.3,0.2-1.8,0.7c-0.4,0.5-0.6,1.2-0.6,1.8l-0.4-3.5c0.4-0.9,0.9-1.7,1.6-2.3c0.7-0.5,1.6-0.8,2.5-0.8
	c1.5-0.1,2.9,0.5,3.9,1.6c1,1.4,1.5,3,1.5,4.7l0.3,9.6l-4.1,0.1L218,39.4z"/>
<path class="st16" d="M227.3,26.8l4.1,0.2l-1.2,22.2l-4.1-0.2L227.3,26.8z M228.3,43.4l7.8-9.7l4.4,0.2L228.6,48L228.3,43.4z
	 M232.2,41.1l3.5-1.9l4.8,10.5l-4.8-0.2L232.2,41.1z"/>
<path class="st16" d="M245.3,50.4c-0.8-0.3-1.6-0.6-2.4-1.1c-0.7-0.4-1.3-0.9-1.9-1.4l3-2.9c0.7,0.5,1.4,1,2.2,1.3
	c0.7,0.3,1.5,0.6,2.3,0.7c0.8,0.1,1.5,0.1,2.3,0c0.6-0.1,0.9-0.4,0.9-0.8c0.1-0.3,0-0.6-0.2-0.9c-0.2-0.2-0.5-0.4-0.8-0.5
	c-0.5-0.2-1-0.3-1.5-0.4l-0.5-0.1l-0.5-0.1h-0.1h-0.1c-0.9-0.2-1.8-0.5-2.7-0.9c-0.7-0.3-1.2-0.9-1.6-1.5C243,41,242.9,40,243,39
	c0.1-1,0.5-1.9,1.1-2.6c0.6-0.7,1.5-1.2,2.4-1.4c1.2-0.3,2.3-0.3,3.5-0.1c1.6,0.2,3.1,0.7,4.5,1.5c0.7,0.4,1.3,0.8,1.8,1.4l-2.9,2.7
	c-0.6-0.5-1.3-0.9-2-1.2c-0.7-0.3-1.4-0.5-2.1-0.6c-0.7-0.1-1.3-0.1-2,0c-0.5,0.1-0.8,0.4-0.8,0.7c0,0.3,0.1,0.5,0.3,0.7
	c0.3,0.2,0.6,0.3,0.9,0.4c0.4,0.1,0.9,0.3,1.6,0.4l0.3,0.1l0.3,0.1h0.1h0.1c1,0.2,1.9,0.5,2.9,0.9c0.7,0.3,1.4,0.9,1.8,1.6
	c0.5,0.9,0.6,2,0.4,3c-0.1,1-0.4,2.1-1.1,2.9c-0.7,0.7-1.5,1.3-2.5,1.5c-1.2,0.3-2.5,0.3-3.7,0.1C247,50.9,246.1,50.7,245.3,50.4z"
	/>
<path class="st16" d="M269.7,54.8l-4.2-1l5-21.6l4.2,1L269.7,54.8z"/>
<path class="st16" d="M278,40.5l4,1.2l-4.5,15.2l-4-1.2L278,40.5z M284.9,49.1c0.2-0.6,0.2-1.3-0.1-1.9c-0.4-0.6-0.9-1-1.6-1.1
	c-0.6-0.2-1.3-0.2-1.9,0.1c-0.6,0.4-1,0.9-1.1,1.6l0.7-3.5c0.6-0.7,1.4-1.3,2.3-1.7c0.8-0.3,1.8-0.3,2.6,0c1.4,0.3,2.6,1.3,3.2,2.7
	c0.6,1.6,0.5,3.4-0.1,5l-2.8,9.2l-4-1.2L284.9,49.1z"/>
<path class="st16" d="M308.3,46.2l3.8,1.6L304,66.5l-3.8-1.6L308.3,46.2z M303.5,42.2l14.8,6.4l-1.6,3.7l-14.8-6.4L303.5,42.2z"/>
<path class="st16" d="M310.3,68.3c-0.3-1.3-0.1-2.7,0.6-3.8c0.5-1.2,1.6-2.1,2.9-2.5c1.5-0.2,3,0.1,4.3,0.9l3.5,1.8l-1.3,2.9
	l-3.7-1.9c-0.4-0.3-0.9-0.4-1.4-0.3c-0.4,0.1-0.8,0.4-0.9,0.8c-0.2,0.4-0.2,0.9,0,1.3c0.4,0.5,0.9,0.9,1.4,1.1
	c0.7,0.4,1.5,0.7,2.4,0.8c0.5,0.1,1-0.2,1.3-0.7l-0.8,2.2c-0.3,0.5-0.8,0.8-1.3,0.9c-0.6,0.1-1.3,0.1-1.9,0
	c-0.7-0.2-1.4-0.4-2.1-0.7C311.8,70.5,310.8,69.5,310.3,68.3z M321.7,64c0.3-0.6,0.4-1.2,0.1-1.8c-0.3-0.7-0.9-1.2-1.6-1.5
	c-0.5-0.3-1.1-0.5-1.7-0.5c-0.6-0.1-1.2-0.1-1.7,0l-1.1-3.4c1-0.4,2-0.5,3-0.4c1.2,0.1,2.3,0.5,3.3,1c1.1,0.5,2,1.3,2.8,2.2
	c0.6,0.8,1,1.8,1,2.8c0,1.1-0.2,2.2-0.8,3.2l-4.7,9l-3.3-1.7L321.7,64z"/>
<path class="st16" d="M331.5,62.8l3.6,2.1L327,78.5l-3.6-2.1L331.5,62.8z M334.7,57.3l3.6,2.1l-2.1,3.6l-3.6-2.1L334.7,57.3z"/>
<path class="st16" d="M338,66.4l3.2,2.3l-3.3,9.6l8.3-6.1l2,1.4l-2.9,9.9l7.9-6.4l3.2,2.3l-13,10.2l-2.5-1.8l3.2-10.4l-8.7,6.5
	l-2.5-1.8L338,66.4z"/>
<path class="st16" d="M350,93.5c0-1.4,0.5-2.7,1.4-3.6c0.8-1.1,2-1.7,3.3-1.8c1.5,0.1,2.9,0.8,4,1.8l3,2.5l-1.9,2.6l-3.2-2.7
	c-0.4-0.3-0.8-0.6-1.3-0.6c-0.4,0-0.8,0.2-1.1,0.6c-0.3,0.3-0.4,0.8-0.3,1.3c0.2,0.6,0.6,1.1,1.1,1.4c0.6,0.6,1.3,1,2.1,1.3
	c0.5,0.2,1,0,1.4-0.4l-1.2,2c-0.4,0.4-1,0.6-1.5,0.6c-0.7,0-1.3-0.1-1.9-0.4c-0.7-0.3-1.3-0.7-1.9-1.2C351,96.1,350.3,94.9,350,93.5
	z M362.1,91.8c0.5-0.5,0.7-1.1,0.5-1.8c-0.2-0.7-0.6-1.3-1.2-1.8c-0.5-0.4-1-0.7-1.5-0.9c-0.5-0.2-1.1-0.3-1.7-0.4l-0.3-3.6
	c1-0.1,2,0,3,0.3c1.1,0.4,2.1,1,3,1.8c0.9,0.8,1.7,1.7,2.2,2.8c0.4,0.9,0.6,2,0.4,3c-0.2,1.1-0.7,2.1-1.5,2.9l-6.6,7.8l-2.9-2.4
	L362.1,91.8z"/>
<path class="st16" d="M372.4,93.2l2.9,2.9l-11.2,11.3l-2.9-3L372.4,93.2z M374.4,104c0.5-0.4,0.8-1.1,0.8-1.7c0-0.7-0.4-1.3-0.9-1.8
	c-0.4-0.5-1.1-0.8-1.7-0.8c-0.7,0-1.3,0.3-1.7,0.9l2.2-2.7c0.9-0.3,1.8-0.5,2.8-0.4c0.9,0.1,1.7,0.6,2.3,1.2c1.1,1,1.7,2.4,1.5,3.9
	c-0.3,1.7-1.1,3.2-2.4,4.3l-6.8,6.8l-2.9-2.9L374.4,104z"/>
<path class="st17" d="M36.4,201.3h96.1c5.9,0,10.7,4.8,10.7,10.7v17.5c0,5.9-4.8,10.7-10.7,10.7H36.4c-5.9,0-10.7-4.8-10.7-10.7V212
	C25.7,206.1,30.5,201.3,36.4,201.3z"/>
<path class="st17" d="M283.1,199.3h99.2c5.9,0,10.7,4.8,10.7,10.7v20.1c0,5.9-4.8,10.7-10.7,10.7h-99.2c-5.9,0-10.7-4.8-10.7-10.7
	V210C272.3,204.1,277.1,199.3,283.1,199.3z"/>
<text transform="matrix(1 0 0 1 32.3696 233.2296)" class="st10 st18">SINCE</text>
<text transform="matrix(1 0 0 1 288.0895 234.3596)" class="st10 st19">2022</text>
<circle class="st8" cx="237.4" cy="272.7" r="6.2"/>
</svg>
