<?xml version="1.0" encoding="utf-8"?>
<!-- Generator: Adobe Illustrator 25.0.0, SVG Export Plug-In . SVG Version: 6.00 Build 0)  -->
<svg version="1.1" id="圖層_1" xmlns="http://www.w3.org/2000/svg" xmlns:xlink="http://www.w3.org/1999/xlink" x="0px" y="0px"
	 viewBox="0 0 1920 547.6" style="enable-background:new 0 0 1920 547.6;" xml:space="preserve">
<style type="text/css">
	.st0{opacity:0.9;enable-background:new    ;}
	.st1{fill:#CEB70D;}
</style>
<g class="st0">
	<path class="st1" d="M279.4,323.2v88.4c0,11.8-0.7,21.1-2,28.2c-1.3,7-3.7,13.4-7.2,19c-3.5,5.7-8,11.1-13.4,16.4
		c-15.7,15.1-30.9,26.1-45.4,33c-14.6,6.9-30.4,10.4-47.6,10.4c-20,0-38.2-5.5-54.7-16.4c-16.4-10.9-30.5-26.7-42.1-47.5
		c-11.6-20.8-20.5-45.9-26.7-75.5c-6.2-29.6-9.3-62.6-9.3-99.1c0-35.9,3-68.7,9-98.5c6-29.8,14.9-55.1,26.6-75.8
		c11.7-20.8,26-36.7,42.8-47.7c16.8-11,35.8-16.5,57.1-16.5c17.5,0,33,4.1,46.5,12.4c13.5,8.3,24.4,18.7,32.8,31.3
		c8.4,12.6,14.7,25.9,19,40c4.3,14.1,6.4,26.5,6.4,37.4c0,11.7-2.5,21.8-7.4,30c-4.9,8.3-10.8,12.4-17.7,12.4
		c-3.8,0-7.4-1.6-10.9-4.7c-3.5-3.1-6.4-7.6-8.8-13.2c-6.5-18-12-31.7-16.5-40.9c-4.5-9.2-10.6-17-18.2-23.3
		c-7.6-6.3-17.4-9.4-29.2-9.4c-12.2,0-23.1,3.7-32.7,11.2c-9.6,7.4-17.8,18.2-24.6,32.4c-6.8,14.2-12,31.5-15.6,52.1
		c-3.6,20.6-5.4,43.3-5.4,68.3c0,54.1,7,95.8,21,124.9c14,29.2,33.6,43.7,58.6,43.7c12.2,0,23.6-2.8,34.3-8.5
		c10.7-5.7,21.6-13.7,32.6-24.2v-74.9h-40.8c-9.8,0-17.2-2.6-22.3-7.9c-5-5.2-7.5-14.2-7.5-26.7c0-10.3,2.1-18.8,6.3-25.5
		c4.2-6.7,9.9-10.1,17.1-10.1h59.8c7.3,0,13.5,1.2,18.6,3.5c5.1,2.3,9.2,7.4,12.3,15.4C277.8,295.3,279.4,307.3,279.4,323.2z"/>
	<path class="st1" d="M452.1,470.1v-11c-5.8,13-11.9,23.9-18.3,32.7s-13.4,15.4-20.9,19.7c-7.6,4.3-16.2,6.5-25.9,6.5
		c-11.7,0-22.2-4.3-31.5-12.9c-9.3-8.6-16.5-20.5-21.6-35.6c-6-18.2-9-44.5-9-78.7V220.6c0-17.2,2.2-30,6.6-38.5
		c4.4-8.5,10.2-12.7,17.4-12.7c7.3,0,13.2,4.3,17.7,12.9c4.5,8.6,6.7,21.4,6.7,38.4v137.5c0,19.9,0.9,36.7,2.8,50.2
		c1.9,13.5,5.3,24.1,10.2,31.8c4.9,7.7,11.6,11.5,20,11.5c8.2,0,15.9-4.3,23.1-12.9c7.2-8.6,12.5-19.8,15.8-33.7
		c2.7-12.2,4.1-38.8,4.1-79.9V220.6c0-17,2.2-29.8,6.7-38.4c4.5-8.6,10.4-12.9,17.6-12.9c7.2,0,13,4.2,17.4,12.7
		c4.4,8.5,6.6,21.3,6.6,38.5v248.9c0,16.4-2.1,28.6-6.3,36.8c-4.2,8.2-9.6,12.3-16.2,12.3c-6.6,0-12.1-4.2-16.4-12.7
		C454.2,497.3,452.1,485.4,452.1,470.1z"/>
	<path class="st1" d="M545.8,466.3V93.8c0-17.2,2.2-30.2,6.5-39c4.3-8.8,10.1-13.2,17.5-13.2c7.3,0,13.2,4.4,17.7,13.1
		c4.5,8.7,6.7,21.8,6.7,39.2v372.5c0,17.4-2.3,30.5-6.8,39.2c-4.6,8.7-10.4,13.1-17.7,13.1c-7.1,0-12.9-4.5-17.3-13.5
		C548,496,545.8,483.1,545.8,466.3z"/>
	<path class="st1" d="M770,470.1v-11c-5.8,13-11.9,23.9-18.3,32.7s-13.4,15.4-20.9,19.7c-7.6,4.3-16.2,6.5-25.9,6.5
		c-11.7,0-22.2-4.3-31.5-12.9c-9.3-8.6-16.5-20.5-21.6-35.6c-6-18.2-9-44.5-9-78.7V220.6c0-17.2,2.2-30,6.6-38.5
		c4.4-8.5,10.2-12.7,17.4-12.7c7.3,0,13.2,4.3,17.7,12.9c4.5,8.6,6.7,21.4,6.7,38.4v137.5c0,19.9,0.9,36.7,2.8,50.2
		c1.9,13.5,5.3,24.1,10.2,31.8c4.9,7.7,11.6,11.5,20,11.5c8.2,0,15.9-4.3,23.1-12.9c7.2-8.6,12.5-19.8,15.8-33.7
		c2.7-12.2,4.1-38.8,4.1-79.9V220.6c0-17,2.2-29.8,6.7-38.4c4.5-8.6,10.4-12.9,17.6-12.9c7.2,0,13,4.2,17.4,12.7
		c4.4,8.5,6.6,21.3,6.6,38.5v248.9c0,16.4-2.1,28.6-6.3,36.8c-4.2,8.2-9.6,12.3-16.2,12.3c-6.6,0-12.1-4.2-16.4-12.7
		C772.2,497.3,770,485.4,770,470.1z"/>
	<path class="st1" d="M863.7,466.3V93.8c0-17.2,2.2-30.2,6.5-39c4.3-8.8,10.1-13.2,17.5-13.2c7.3,0,13.2,4.4,17.7,13.1
		c4.5,8.7,6.7,21.8,6.7,39.2v372.5c0,17.4-2.3,30.5-6.8,39.2c-4.6,8.7-10.4,13.1-17.7,13.1c-7.1,0-12.9-4.5-17.3-13.5
		C866,496,863.7,483.1,863.7,466.3z"/>
	<path class="st1" d="M1088,470.1v-11c-5.8,13-11.9,23.9-18.3,32.7c-6.4,8.8-13.4,15.4-20.9,19.7c-7.6,4.3-16.2,6.5-25.9,6.5
		c-11.7,0-22.2-4.3-31.5-12.9c-9.3-8.6-16.5-20.5-21.6-35.6c-6-18.2-9-44.5-9-78.7V220.6c0-17.2,2.2-30,6.6-38.5
		c4.4-8.5,10.2-12.7,17.4-12.7c7.3,0,13.2,4.3,17.7,12.9c4.5,8.6,6.7,21.4,6.7,38.4v137.5c0,19.9,0.9,36.7,2.8,50.2
		c1.9,13.5,5.3,24.1,10.2,31.8c4.9,7.7,11.6,11.5,20,11.5c8.2,0,15.9-4.3,23.1-12.9c7.2-8.6,12.5-19.8,15.8-33.7
		c2.7-12.2,4.1-38.8,4.1-79.9V220.6c0-17,2.2-29.8,6.7-38.4c4.5-8.6,10.4-12.9,17.6-12.9c7.2,0,13,4.2,17.4,12.7
		c4.4,8.5,6.6,21.3,6.6,38.5v248.9c0,16.4-2.1,28.6-6.3,36.8c-4.2,8.2-9.6,12.3-16.2,12.3c-6.6,0-12.1-4.2-16.4-12.7
		C1090.2,497.3,1088,485.4,1088,470.1z"/>
	<path class="st1" d="M1444.9,126.5h-57.5v335.1c0,19.3-2.4,33.6-7.3,42.9c-4.9,9.3-11.1,14-18.8,14c-7.8,0-14.2-4.7-19.1-14.2
		c-4.9-9.4-7.4-23.7-7.4-42.8V126.5h-57.5c-9,0-15.7-3.5-20.1-10.5c-4.4-7-6.6-16.3-6.6-27.8c0-12,2.3-21.4,6.8-28.3
		c4.6-6.9,11.1-10.4,19.8-10.4h167.5c9.1,0,15.9,3.6,20.3,10.7c4.4,7.1,6.7,16.5,6.7,28c0,11.5-2.2,20.8-6.7,27.8
		C1460.6,123,1453.9,126.5,1444.9,126.5z"/>
	<path class="st1" d="M1612,365h-94.8c0.1,19.5,2.3,36.7,6.7,51.6c4.3,14.9,10.1,26.1,17.2,33.7c7.2,7.6,15.1,11.3,23.7,11.3
		c5.8,0,11.1-1.2,15.9-3.6c4.8-2.4,9.4-6.2,13.9-11.3c4.5-5.1,8.6-10.6,12.4-16.5c3.8-5.9,8.7-13.8,14.7-23.9
		c2.5-3.8,6-5.7,10.6-5.7c5,0,9,2.4,12.1,7.2c3.1,4.8,4.6,11.6,4.6,20.5c0,7.8-1.7,16.8-5.1,27.2c-3.4,10.4-8.6,20.3-15.5,29.9
		c-6.9,9.5-15.6,17.5-26.1,23.8c-10.5,6.3-22.5,9.4-36.1,9.4c-31.1,0-55.3-15.7-72.6-47.2c-17.3-31.5-25.9-74.1-25.9-128.1
		c0-25.4,2.1-48.9,6.4-70.6c4.3-21.7,10.5-40.3,18.6-55.8c8.2-15.5,18.2-27.4,30.2-35.7c11.9-8.3,25.2-12.4,39.7-12.4
		c18.9,0,35.2,7.1,48.7,21.2c13.5,14.2,23.7,32.5,30.4,54.9c6.7,22.4,10.1,45.3,10.1,68.6c0,21.6-3.5,35.6-10.5,42
		C1634.5,361.8,1624.7,365,1612,365z M1517.3,316.3h87.8c-1.2-29.4-5.7-51.3-13.4-65.9c-7.8-14.6-18-21.9-30.6-21.9
		c-12.1,0-22,7.4-29.7,22.2C1523.6,265.5,1518.9,287.3,1517.3,316.3z"/>
	<path class="st1" d="M1815.2,470.1c-11.7,16.2-23,28.3-34,36.3c-10.9,8.1-23.2,12.1-36.8,12.1c-12.4,0-23.3-4.4-32.7-13.1
		c-9.4-8.7-16.7-20.5-21.7-35.4c-5.1-14.9-7.6-31-7.6-48.5c0-23.5,4.2-43.5,12.6-60.1c8.4-16.6,19.9-27.7,34.6-33.4
		c3.1-1.3,10.7-4.1,22.9-8.5c12.2-4.4,22.6-8.4,31.3-12.1c8.7-3.7,18.1-8.1,28.3-13.4c-0.6-22.7-3.2-39.3-7.7-49.9
		c-4.6-10.6-14-15.9-28.3-15.9c-12.3,0-21.6,3-27.8,9.1c-6.2,6.1-11.5,15.2-16,27.4c-4.4,12.2-7.6,20.2-9.4,24.1
		c-1.8,3.9-5.8,5.8-11.8,5.8c-5.4,0-10.1-3.1-14.1-9.3c-4-6.2-5.9-14.1-5.9-23.8c0-15.1,3-29.8,9-44c6-14.3,15.4-26,28.2-35.2
		c12.8-9.2,28.7-13.8,47.7-13.8c21.3,0,38,4.5,50.2,13.4c12.2,8.9,20.8,23,25.8,42.3c5,19.3,7.5,44.9,7.5,76.8
		c0,20.1,0,37.2-0.1,51.3c-0.1,14.1-0.1,29.7-0.3,46.9c0,16.2,1.5,33,4.5,50.5c3,17.5,4.5,28.8,4.5,33.8c0,8.8-2.3,16.8-7,24.1
		c-4.7,7.2-10,10.9-15.9,10.9c-5,0-9.9-4.1-14.7-12.4C1825.8,497.9,1820.7,485.9,1815.2,470.1z M1812,345.8
		c-7.1,4.6-17.4,9.5-31,14.6c-13.5,5.1-22.9,8.9-28.1,11.3c-5.2,2.4-10.2,7.1-14.9,14.2c-4.7,7-7.1,16.8-7.1,29.4
		c0,13,2.8,24.1,8.3,33.2c5.6,9.1,12.8,13.7,21.8,13.7c9.6,0,18.4-3.7,26.5-11.2c8.1-7.4,14-17,17.8-28.8c4.4-13,6.6-34.4,6.6-64.2
		V345.8z"/>
</g>
</svg>
