<svg xmlns="http://www.w3.org/2000/svg" viewBox="0 0 436.48 436.48"><defs><style>.cls-1{fill:#b2004e;}.cls-2{fill:#00bf26;stroke:#008c68;}.cls-10,.cls-11,.cls-2,.cls-3,.cls-5,.cls-7,.cls-8,.cls-9{stroke-miterlimit:10;}.cls-2,.cls-3{stroke-width:0.75px;}.cls-3{fill:#feffd8;stroke:#feffd8;opacity:0.68;}.cls-4{opacity:0.9;}.cls-5{fill:#fff;}.cls-10,.cls-5{stroke:#fff;}.cls-6{fill:#100e00;}.cls-7,.cls-8{fill:none;}.cls-11,.cls-7,.cls-8,.cls-9{stroke:#000;}.cls-11,.cls-7{stroke-width:8px;}.cls-10,.cls-12{fill:#fcfcfc;}.cls-11,.cls-13{fill:#ddcd3a;}.cls-12{opacity:0.62;}.cls-13{opacity:0.49;}</style></defs><g id="圖層_2" data-name="圖層 2"><g id="圖層_1-2" data-name="圖層 1"><circle class="cls-1" cx="218.24" cy="218.24" r="218.24"/><path class="cls-2" d="M242.38,323.34c5.54-39.67,42.6-63,64.47-70.6,6.92-2.4,26.16-4.72,35.85-1.22-3.61,34.4-53.3,85.78-100.21,81.47,9.78-7.56,17.51-16.94,30.22-26.56.81-.61,29.61-.66,38.17-14.46-12.87,9.35-29.87,5.62-28.94,4.9,2.42-1.85,7.5-5.67,9.79-7.47.67-.53,36.38-25.54,38.25-29.79-3.08-.71-28.05,11.95-36.76,20.43-.46.45,2.74-9.45,8.61-20.16-13.4,9.11-17.2,24.45-18,25C276.81,289.81,266.87,300.2,242.38,323.34Z" transform="translate(0 -49.84)"/><path class="cls-2" d="M191.94,333.83c-4.19-24.85-25.38-40.44-37.71-45.76-3.9-1.69-14.62-3.68-19.89-1.78,3,21.51,31.95,54.89,57.81,53.54-5.63-5-10.18-11-17.49-17.38-.47-.41-16.42-1.26-21.55-10.09,7.39,6.19,16.7,4.35,16.17,3.88-1.4-1.23-4.32-3.74-5.64-4.93-.38-.35-20.87-16.93-22-19.63,1.69-.35,15.88,8.24,20.94,13.76.27.29-1.78-6-5.34-12.79,7.68,6.05,10.22,15.71,10.67,16.07C171.92,312,177.72,318.73,191.94,333.83Z" transform="translate(0 -49.84)"/><path class="cls-3" d="M77.28,157.89l8.79-10.66,2.6,2.25-8.78,10.66Zm4.44-2.95L84,152.2l13.16,11.4-2.26,2.74Z" transform="translate(0 -49.84)"/><path class="cls-3" d="M88,145.31l2.49-2.52,13.19,13.67L101.18,159Zm12.94,2.24a2,2,0,0,0-1.47-.71,2.11,2.11,0,0,0-1.5.74,2,2,0,0,0-.68,1.48,2.2,2.2,0,0,0,.7,1.51l-2.28-2a5.37,5.37,0,0,1-.31-2.42,3.46,3.46,0,0,1,1-2,3.89,3.89,0,0,1,3.32-1.3,6.21,6.21,0,0,1,3.65,2.11l5.72,5.92-2.5,2.53Z" transform="translate(0 -49.84)"/><path class="cls-3" d="M112.93,146.85a4.68,4.68,0,0,1-2.91-.24,7,7,0,0,1-2.63-2.08l-1-1.19a8,8,0,0,1-1.66-3.11,5.1,5.1,0,0,1,.15-3,6.58,6.58,0,0,1,2-2.65,4.91,4.91,0,0,1,2.84-1.27,5.3,5.3,0,0,1,3.09.76,11.41,11.41,0,0,1,3.08,2.74l.56.69-7,6L108,141.59l4.51-3.86-.23-.22a3.06,3.06,0,0,0-1.7-.93,2,2,0,0,0-1.6.52,2.54,2.54,0,0,0-1,1.89,3.19,3.19,0,0,0,.85,2.15l1.09,1.34a2.59,2.59,0,0,0,4.06.35,4.15,4.15,0,0,0,.9-1.12,4.23,4.23,0,0,0,.5-1.38l3.07.11a7.75,7.75,0,0,1-.83,2.68,7.19,7.19,0,0,1-1.66,2.13A7,7,0,0,1,112.93,146.85Z" transform="translate(0 -49.84)"/><path class="cls-3" d="M117.6,119.47l3-1.93,10.09,16.21-2.95,1.93Zm9.55,12.42,5-3.26a2.74,2.74,0,0,0,1.26-1.53,2.17,2.17,0,0,0-.33-1.78l0,0a2.46,2.46,0,0,0-.9-.89,1.92,1.92,0,0,0-1.14-.19,3.16,3.16,0,0,0-1.29.52l-5,3.26-1.83-2.94,5-3.26a2.37,2.37,0,0,0,1.12-1.41,2.09,2.09,0,0,0-.33-1.67,1.77,1.77,0,0,0-1.26-.89,2.48,2.48,0,0,0-1.69.49l-5,3.26-1.83-2.95L124,115.3a7,7,0,0,1,2.92-1.17,4.17,4.17,0,0,1,2.57.44,5.33,5.33,0,0,1,2,2,4.41,4.41,0,0,1,.68,1.91,3.87,3.87,0,0,1-.3,1.89,5.15,5.15,0,0,1-1.27,1.71,4.83,4.83,0,0,1,2.18-.5,3.71,3.71,0,0,1,1.94.59,5,5,0,0,1,1.56,1.63l0,0a5.66,5.66,0,0,1,.92,2.75,4.52,4.52,0,0,1-.71,2.59,7.43,7.43,0,0,1-2.28,2.21L129,134.83Z" transform="translate(0 -49.84)"/><path class="cls-3" d="M143.41,125.34a4.76,4.76,0,0,1-2.79-.9,7,7,0,0,1-2.12-2.61l-.7-1.37a7.94,7.94,0,0,1-1-3.41,5,5,0,0,1,.78-2.89,6.45,6.45,0,0,1,2.48-2.15,4.84,4.84,0,0,1,3-.6,5.37,5.37,0,0,1,2.85,1.43,11.46,11.46,0,0,1,2.42,3.36l.41.8-8.07,4.26-1.1-2.17,5.23-2.76-.18-.26a3.18,3.18,0,0,0-1.46-1.29,2,2,0,0,0-1.68.15,2.59,2.59,0,0,0-1.39,1.61,3.25,3.25,0,0,0,.37,2.29l.79,1.55A2.89,2.89,0,0,0,143,122a2.85,2.85,0,0,0,2.23-.32,4.11,4.11,0,0,0,1.13-.88,4.47,4.47,0,0,0,.78-1.24l3,.79a7.92,7.92,0,0,1-1.39,2.43,7,7,0,0,1-2.08,1.71A6.92,6.92,0,0,1,143.41,125.34Z" transform="translate(0 -49.84)"/><path class="cls-3" d="M156.23,119.54a10.48,10.48,0,0,1-2.19.24,7.43,7.43,0,0,1-2-.25l.94-3.42a8.76,8.76,0,0,0,2.22.11,6.54,6.54,0,0,0,2-.48,5.28,5.28,0,0,0,1.65-1,.91.91,0,0,0,.32-1,.78.78,0,0,0-.53-.52,1.76,1.76,0,0,0-.83,0,12.53,12.53,0,0,0-1.25.35l-.45.14-.47.14-.11,0-.1,0a14,14,0,0,1-2.38.49,3,3,0,0,1-1.82-.43,3.86,3.86,0,0,1-1.48-2,4.15,4.15,0,0,1-.3-2.42,4.07,4.07,0,0,1,1.15-2.1,7.58,7.58,0,0,1,2.51-1.63,10.16,10.16,0,0,1,1.94-.61,10.54,10.54,0,0,1,2-.2,9.43,9.43,0,0,1,1.93.21l-.93,3.25a8.12,8.12,0,0,0-2,0,6.21,6.21,0,0,0-1.78.46,4.47,4.47,0,0,0-1.43.88.8.8,0,0,0-.27.88.58.58,0,0,0,.49.37,2.13,2.13,0,0,0,.82,0c.31-.07.76-.19,1.33-.36l.23-.07.22-.07.11,0,.11,0a14.22,14.22,0,0,1,2.5-.56,3.24,3.24,0,0,1,2,.41,4.08,4.08,0,0,1,1.61,2.1,4.37,4.37,0,0,1,.31,2.51,4.23,4.23,0,0,1-1.2,2.2,8.15,8.15,0,0,1-2.64,1.71A12,12,0,0,1,156.23,119.54Z" transform="translate(0 -49.84)"/><path class="cls-3" d="M160.67,103l6.14-2.17,1,2.92-6.14,2.17Zm6.19,11.42a3.94,3.94,0,0,1-1.64-2.3l-4.54-13.35L164,97.55l4.26,12.5a1.31,1.31,0,0,0,.42.67.65.65,0,0,0,.62.07l.83-.29,1.12,3.29-1.67.59A3.25,3.25,0,0,1,166.86,114.37Z" transform="translate(0 -49.84)"/><path class="cls-3" d="M176.49,92.05l3.42-.78L184,110l-3.42.78Zm5.1,15,4.36-1a3.83,3.83,0,0,0,2.42-1.43,3.12,3.12,0,0,0,.41-2.58l-1.22-5.52a3.07,3.07,0,0,0-1.44-2.16,3.81,3.81,0,0,0-2.8-.24l-4.36,1-.74-3.4,4.28-1a9,9,0,0,1,4.05-.09,5.57,5.57,0,0,1,2.95,1.74,7.56,7.56,0,0,1,1.63,3.44l1.17,5.31a7.48,7.48,0,0,1,0,3.71,5.73,5.73,0,0,1-1.9,2.9,8.81,8.81,0,0,1-3.76,1.74l-4.27,1Z" transform="translate(0 -49.84)"/><path class="cls-3" d="M195,93.78l3.73-.53,1.88,13.58-3.73.53Zm7.25,2.43a2.29,2.29,0,0,0-.87,0,2,2,0,0,0-1.53.93,3,3,0,0,0-.3,2l-.76-3.49a5,5,0,0,1,1.15-2.09,3.11,3.11,0,0,1,1.82-.95,3.83,3.83,0,0,1,1.52.06,3.1,3.1,0,0,1,1.27.63l-1.62,3.2A1.56,1.56,0,0,0,202.23,96.21Z" transform="translate(0 -49.84)"/><path class="cls-3" d="M205.84,86.85l3.49-.31.32,3.6-3.49.32Zm.48,5.48,3.5-.32L211,105.66l-3.49.32Z" transform="translate(0 -49.84)"/><path class="cls-3" d="M213.58,91.68l3.5-.1.41,13.7-3.5.1Zm7.84,5.18a2.07,2.07,0,0,0-.61-1.54,2.12,2.12,0,0,0-1.59-.51,2,2,0,0,0-1.49.6,2.21,2.21,0,0,0-.48,1.59l-.36-3a4.94,4.94,0,0,1,1.38-2,3.28,3.28,0,0,1,2.08-.71,3.93,3.93,0,0,1,3.3,1.37,6.53,6.53,0,0,1,1.27,4.09l.25,8.31-3.5.1Z" transform="translate(0 -49.84)"/><path class="cls-3" d="M229.24,86l3.5.19-.94,19.17-3.5-.2Zm.94,14.33,6.62-8.42,3.7.2-10,12.22Zm3.25-2,3-1.63,4.07,9.1-4-.22Z" transform="translate(0 -49.84)"/><path class="cls-3" d="M244.53,106.35a10,10,0,0,1-2-.92,7.49,7.49,0,0,1-1.6-1.24l2.49-2.47a8.68,8.68,0,0,0,1.87,1.24,6.68,6.68,0,0,0,1.94.61,5,5,0,0,0,1.93,0c.47-.13.73-.36.77-.69a.83.83,0,0,0-.21-.73,1.87,1.87,0,0,0-.7-.44c-.3-.1-.72-.22-1.27-.35l-.45-.11-.47-.12-.11,0-.1,0a13.93,13.93,0,0,1-2.31-.81,3.06,3.06,0,0,1-1.36-1.31,4,4,0,0,1-.32-2.45,4.25,4.25,0,0,1,.93-2.25,3.91,3.91,0,0,1,2-1.22,7.43,7.43,0,0,1,3-.11,9.6,9.6,0,0,1,2,.48,10.66,10.66,0,0,1,1.84.86,9.16,9.16,0,0,1,1.57,1.17l-2.4,2.32a8.86,8.86,0,0,0-1.7-1,6.66,6.66,0,0,0-1.77-.52,4.28,4.28,0,0,0-1.67,0c-.41.11-.64.32-.67.61a.59.59,0,0,0,.24.57,2.06,2.06,0,0,0,.74.38c.3.1.75.23,1.33.38l.22,0,.23.06.11,0a.24.24,0,0,1,.12,0,15.74,15.74,0,0,1,2.44.81,3.29,3.29,0,0,1,1.5,1.37,4.11,4.11,0,0,1,.36,2.63,4.29,4.29,0,0,1-1,2.33,4,4,0,0,1-2.12,1.28,8,8,0,0,1-3.13.12A13.15,13.15,0,0,1,244.53,106.35Z" transform="translate(0 -49.84)"/><path class="cls-3" d="M265.23,110.22l-3.54-.85,4.21-18.69,3.54.85Z" transform="translate(0 -49.84)"/><path class="cls-3" d="M272.26,97.86l3.36,1L271.81,112l-3.36-1Zm5.86,7.43a2.14,2.14,0,0,0-.1-1.65,2.19,2.19,0,0,0-1.36-1,2,2,0,0,0-1.6.09,2.17,2.17,0,0,0-.95,1.36l.59-3a4.81,4.81,0,0,1,1.92-1.43,3.31,3.31,0,0,1,2.2,0,4,4,0,0,1,2.71,2.35,6.56,6.56,0,0,1,0,4.29l-2.31,8-3.36-1Z" transform="translate(0 -49.84)"/><path class="cls-3" d="M297.87,102.82l3.22,1.43-6.81,16.17L291.06,119Zm-4.05-3.51,12.53,5.57-1.35,3.2-12.53-5.57Z" transform="translate(0 -49.84)"/><path class="cls-3" d="M299.63,122a4.28,4.28,0,0,1,.49-3.32,3.65,3.65,0,0,1,2.41-2.15,5.32,5.32,0,0,1,3.62.78l3,1.57L308,121.38l-3.11-1.66a1.82,1.82,0,0,0-1.2-.27,1.15,1.15,0,0,0-.8.68,1.12,1.12,0,0,0,0,1.12,2.91,2.91,0,0,0,1.2,1,5,5,0,0,0,2,.7,1,1,0,0,0,1.07-.59l-.66,1.9a1.81,1.81,0,0,1-1.15.8,3.63,3.63,0,0,1-1.64,0,6.8,6.8,0,0,1-1.76-.64A4.51,4.51,0,0,1,299.63,122Zm9.63-3.69a1.83,1.83,0,0,0,.11-1.59,2.78,2.78,0,0,0-1.32-1.28,4.57,4.57,0,0,0-1.42-.47,4.21,4.21,0,0,0-1.46,0l-.94-3a5.16,5.16,0,0,1,2.51-.3,8,8,0,0,1,2.81.91,6.88,6.88,0,0,1,2.37,1.94,4.32,4.32,0,0,1,.88,2.43,5.54,5.54,0,0,1-.65,2.75l-3.95,7.81L305.37,126Z" transform="translate(0 -49.84)"/><path class="cls-3" d="M317.59,117.31l3,1.84-6.82,11.77-3-1.84Zm2.74-4.71,3,1.84-1.8,3.1-3-1.84Z" transform="translate(0 -49.84)"/><path class="cls-3" d="M323.1,120.46l2.76,2-2.81,8.31,7-5.26,1.69,1.22-2.44,8.57,6.67-5.52,2.76,2-11,8.79L325.6,139l2.67-9-7.34,5.63-2.14-1.55Z" transform="translate(0 -49.84)"/><path class="cls-3" d="M333.26,143.93a4.29,4.29,0,0,1,1.2-3.13,3.61,3.61,0,0,1,2.82-1.54,5.35,5.35,0,0,1,3.36,1.58l2.54,2.2-1.59,2.22L338.91,143a1.84,1.84,0,0,0-1.11-.54,1.13,1.13,0,0,0-.92.48,1.11,1.11,0,0,0-.25,1.1,3,3,0,0,0,.95,1.24,5.39,5.39,0,0,0,1.81,1.14,1,1,0,0,0,1.17-.33l-1.05,1.69a1.72,1.72,0,0,1-1.29.52,3.75,3.75,0,0,1-1.6-.37,7,7,0,0,1-1.58-1A4.59,4.59,0,0,1,333.26,143.93Zm10.2-1.41a1.79,1.79,0,0,0,.45-1.52,2.75,2.75,0,0,0-1-1.55,4.4,4.4,0,0,0-1.28-.78,4.12,4.12,0,0,0-1.43-.33l-.28-3.12a5.07,5.07,0,0,1,2.52.28A7.88,7.88,0,0,1,345,137a7,7,0,0,1,1.89,2.42,4.43,4.43,0,0,1,.34,2.57,5.39,5.39,0,0,1-1.24,2.53l-5.53,6.72L338,149.15Z" transform="translate(0 -49.84)"/><path class="cls-3" d="M352.17,143.79l2.48,2.55L345.19,156l-2.48-2.55Zm1.7,9.39a2.07,2.07,0,0,0,.68-1.5,2.24,2.24,0,0,0-.73-1.54,2,2,0,0,0-1.45-.7,2.12,2.12,0,0,0-1.47.73l1.91-2.34a5,5,0,0,1,2.36-.32,3.38,3.38,0,0,1,1.93,1.08,4.1,4.1,0,0,1,1.29,3.39,6.4,6.4,0,0,1-2,3.74l-5.74,5.86L348.14,159Z" transform="translate(0 -49.84)"/><g class="cls-4"><path class="cls-5" d="M121.83,379.22v8a8.68,8.68,0,0,1-.31,2.54,4.09,4.09,0,0,1-1.14,1.71,10.49,10.49,0,0,1-2.11,1.47,33.27,33.27,0,0,1-7.17,3,28.69,28.69,0,0,1-7.5.93A24.27,24.27,0,0,1,95,395.34a18.11,18.11,0,0,1-6.63-4.28,18.87,18.87,0,0,1-4.22-6.8,25.64,25.64,0,0,1-1.47-8.92,26.39,26.39,0,0,1,1.43-8.86,18.21,18.21,0,0,1,4.2-6.83A18.67,18.67,0,0,1,95,355.36a25.66,25.66,0,0,1,9-1.48,22,22,0,0,1,7.33,1.12,16,16,0,0,1,5.18,2.81,12.61,12.61,0,0,1,3,3.6,7.42,7.42,0,0,1,1,3.37,3.62,3.62,0,0,1-1.17,2.71,3.87,3.87,0,0,1-2.78,1.11,3.73,3.73,0,0,1-1.72-.42,3.88,3.88,0,0,1-1.39-1.19,35.65,35.65,0,0,0-2.6-3.68,8.52,8.52,0,0,0-2.87-2.1,11,11,0,0,0-4.61-.85,12.59,12.59,0,0,0-5.15,1,10.68,10.68,0,0,0-3.88,2.91A13.17,13.17,0,0,0,91.94,369a20.82,20.82,0,0,0-.86,6.15q0,7.31,3.32,11.24t9.25,3.94a18.64,18.64,0,0,0,5.42-.77,27,27,0,0,0,5.14-2.18v-6.74h-6.44a6.88,6.88,0,0,1-3.51-.71,2.56,2.56,0,0,1-1.2-2.4,3,3,0,0,1,1-2.3,3.86,3.86,0,0,1,2.7-.9h9.44a11.89,11.89,0,0,1,2.94.31,3.3,3.3,0,0,1,1.94,1.39A5.63,5.63,0,0,1,121.83,379.22Z" transform="translate(0 -49.84)"/><path class="cls-5" d="M149.07,392.45v-1a17.14,17.14,0,0,1-2.88,2.94,10.3,10.3,0,0,1-3.31,1.77,13.16,13.16,0,0,1-4.09.58,10.44,10.44,0,0,1-5-1.16,8.4,8.4,0,0,1-3.4-3.2,14.3,14.3,0,0,1-1.43-7.08V370a5,5,0,0,1,1-3.47,3.53,3.53,0,0,1,2.74-1.14,3.59,3.59,0,0,1,2.8,1.16,4.93,4.93,0,0,1,1.07,3.45v12.38a19.14,19.14,0,0,0,.45,4.51,5.31,5.31,0,0,0,1.61,2.86,4.55,4.55,0,0,0,3.15,1,6.41,6.41,0,0,0,3.64-1.16,6.86,6.86,0,0,0,2.49-3q.65-1.65.64-7.2V370a4.93,4.93,0,0,1,1.07-3.45,3.56,3.56,0,0,1,2.77-1.16,3.52,3.52,0,0,1,2.74,1.14,5,5,0,0,1,1,3.47v22.4a4.79,4.79,0,0,1-1,3.32,3.51,3.51,0,0,1-5.15,0A4.65,4.65,0,0,1,149.07,392.45Z" transform="translate(0 -49.84)"/><path class="cls-5" d="M163.85,392.11V358.58a5.2,5.2,0,0,1,1-3.51,3.43,3.43,0,0,1,2.76-1.19,3.62,3.62,0,0,1,2.8,1.17,5.17,5.17,0,0,1,1.06,3.53v33.53a5.07,5.07,0,0,1-1.08,3.53,3.62,3.62,0,0,1-2.78,1.17,3.46,3.46,0,0,1-2.74-1.22A5.17,5.17,0,0,1,163.85,392.11Z" transform="translate(0 -49.84)"/><path class="cls-5" d="M199.25,392.45v-1a17.18,17.18,0,0,1-2.89,2.94,10.35,10.35,0,0,1-3.3,1.77,13.2,13.2,0,0,1-4.09.58,10.41,10.41,0,0,1-5-1.16,8.4,8.4,0,0,1-3.4-3.2,14.3,14.3,0,0,1-1.43-7.08V370a5,5,0,0,1,1-3.47,3.52,3.52,0,0,1,2.74-1.14,3.59,3.59,0,0,1,2.8,1.16,4.93,4.93,0,0,1,1.06,3.45v12.38a19.14,19.14,0,0,0,.45,4.51,5.43,5.43,0,0,0,1.61,2.86,4.58,4.58,0,0,0,3.15,1,6.39,6.39,0,0,0,3.64-1.16,6.79,6.79,0,0,0,2.49-3q.65-1.65.65-7.2V370a4.93,4.93,0,0,1,1.06-3.45,3.58,3.58,0,0,1,2.78-1.16,3.53,3.53,0,0,1,2.74,1.14,5,5,0,0,1,1,3.47v22.4a4.84,4.84,0,0,1-1,3.32,3.51,3.51,0,0,1-5.15,0A4.65,4.65,0,0,1,199.25,392.45Z" transform="translate(0 -49.84)"/><path class="cls-5" d="M214,392.11V358.58a5.25,5.25,0,0,1,1-3.51,3.43,3.43,0,0,1,2.76-1.19,3.6,3.6,0,0,1,2.8,1.17,5.12,5.12,0,0,1,1.07,3.53v33.53a5.07,5.07,0,0,1-1.08,3.53,3.62,3.62,0,0,1-2.79,1.17,3.44,3.44,0,0,1-2.73-1.22A5.17,5.17,0,0,1,214,392.11Z" transform="translate(0 -49.84)"/><path class="cls-5" d="M249.42,392.45v-1a16.78,16.78,0,0,1-2.88,2.94,10.35,10.35,0,0,1-3.3,1.77,13.2,13.2,0,0,1-4.09.58,10.39,10.39,0,0,1-5-1.16,8.34,8.34,0,0,1-3.4-3.2,14.19,14.19,0,0,1-1.43-7.08V370a5,5,0,0,1,1-3.47,3.54,3.54,0,0,1,2.75-1.14,3.61,3.61,0,0,1,2.8,1.16A4.93,4.93,0,0,1,237,370v12.38a19.14,19.14,0,0,0,.45,4.51,5.37,5.37,0,0,0,1.61,2.86,4.55,4.55,0,0,0,3.15,1,6.39,6.39,0,0,0,3.64-1.16,6.79,6.79,0,0,0,2.49-3q.64-1.65.65-7.2V370a4.93,4.93,0,0,1,1.06-3.45,3.89,3.89,0,0,1,5.52,0,5,5,0,0,1,1,3.47v22.4a4.84,4.84,0,0,1-1,3.32,3.51,3.51,0,0,1-5.15,0A4.6,4.6,0,0,1,249.42,392.45Z" transform="translate(0 -49.84)"/><path class="cls-5" d="M305.73,361.52h-9.07v30.16a5.58,5.58,0,0,1-1.15,3.87,3.82,3.82,0,0,1-3,1.26,3.89,3.89,0,0,1-3-1.27,5.6,5.6,0,0,1-1.16-3.86V361.52H279.3a4.51,4.51,0,0,1-3.16-.95,3.22,3.22,0,0,1-1-2.5,3.19,3.19,0,0,1,1.08-2.55,4.65,4.65,0,0,1,3.12-.93h26.43a4.63,4.63,0,0,1,3.21,1,3.25,3.25,0,0,1,1.05,2.52,3.18,3.18,0,0,1-1.07,2.5A4.61,4.61,0,0,1,305.73,361.52Z" transform="translate(0 -49.84)"/><path class="cls-5" d="M332.11,383H317.16a10.23,10.23,0,0,0,1,4.64,7,7,0,0,0,6.45,4.05,9,9,0,0,0,2.51-.32,8.19,8.19,0,0,0,2.19-1,15.76,15.76,0,0,0,2-1.49c.6-.53,1.38-1.24,2.33-2.15a2.48,2.48,0,0,1,1.68-.51,2.75,2.75,0,0,1,1.9.65,2.34,2.34,0,0,1,.73,1.84,5.06,5.06,0,0,1-.81,2.45,9.63,9.63,0,0,1-2.45,2.69,14,14,0,0,1-4.12,2.14,17.42,17.42,0,0,1-5.69.85q-7.36,0-11.46-4.25T309.35,381a19.45,19.45,0,0,1,1-6.36,14,14,0,0,1,2.94-5,12.69,12.69,0,0,1,4.76-3.21,16.86,16.86,0,0,1,6.27-1.12,14.79,14.79,0,0,1,7.69,1.91,12.43,12.43,0,0,1,4.8,4.94,13.06,13.06,0,0,1,1.6,6.18q0,2.91-1.65,3.78A10.28,10.28,0,0,1,332.11,383Zm-14.95-4.39H331a9.43,9.43,0,0,0-2.12-5.93,6.29,6.29,0,0,0-4.83-2,6.06,6.06,0,0,0-4.69,2A10,10,0,0,0,317.16,378.6Z" transform="translate(0 -49.84)"/><path class="cls-5" d="M364.17,392.45a24,24,0,0,1-5.36,3.27,14.82,14.82,0,0,1-5.81,1.09,11,11,0,0,1-5.17-1.17,8.61,8.61,0,0,1-3.43-3.19,8.35,8.35,0,0,1-1.2-4.36,7.83,7.83,0,0,1,2-5.41,9.88,9.88,0,0,1,5.46-3c.48-.12,1.68-.37,3.61-.77s3.57-.76,4.94-1.09,2.86-.73,4.47-1.2a8.17,8.17,0,0,0-1.22-4.49c-.72-.95-2.21-1.43-4.47-1.43a9.18,9.18,0,0,0-4.38.82,7.2,7.2,0,0,0-2.52,2.46c-.7,1.1-1.2,1.82-1.48,2.17a2.43,2.43,0,0,1-1.87.52,3.19,3.19,0,0,1-2.22-.83,2.73,2.73,0,0,1-.94-2.14,6.58,6.58,0,0,1,1.43-4,10.21,10.21,0,0,1,4.45-3.18,19.9,19.9,0,0,1,7.53-1.24,21.12,21.12,0,0,1,7.92,1.2,7.36,7.36,0,0,1,4.08,3.81,16.89,16.89,0,0,1,1.19,6.91c0,1.81,0,3.35,0,4.62s0,2.67-.05,4.22a15.54,15.54,0,0,0,.72,4.54,14.76,14.76,0,0,1,.71,3.05,2.87,2.87,0,0,1-1.1,2.16,3.67,3.67,0,0,1-2.51,1,3.38,3.38,0,0,1-2.33-1.12A16.52,16.52,0,0,1,364.17,392.45Zm-.5-11.19a36.86,36.86,0,0,1-4.89,1.32q-3.21.69-4.44,1a6.1,6.1,0,0,0-2.35,1.27,3.29,3.29,0,0,0-1.12,2.65,3.94,3.94,0,0,0,1.32,3,4.82,4.82,0,0,0,3.44,1.23,8.83,8.83,0,0,0,4.18-1,6.69,6.69,0,0,0,2.82-2.6q1-1.75,1-5.77Z" transform="translate(0 -49.84)"/></g><path class="cls-6" d="M172.46,424a4.89,4.89,0,0,1-.77,2.69,5.22,5.22,0,0,1-2.25,1.86,8.47,8.47,0,0,1-3.52.68,7.92,7.92,0,0,1-4-.92,5.53,5.53,0,0,1-1.83-1.77,4.1,4.1,0,0,1-.7-2.15,1.47,1.47,0,0,1,1.5-1.48,1.28,1.28,0,0,1,.89.34,2.72,2.72,0,0,1,.62,1,7,7,0,0,0,.68,1.32,2.78,2.78,0,0,0,1,.87,4.58,4.58,0,0,0,4.15-.35,2.08,2.08,0,0,0,.93-1.73,1.84,1.84,0,0,0-.5-1.33,3.3,3.3,0,0,0-1.3-.78,21.05,21.05,0,0,0-2.11-.57,15.44,15.44,0,0,1-3-1,4.81,4.81,0,0,1-1.9-1.52,3.9,3.9,0,0,1-.7-2.38,4.06,4.06,0,0,1,.74-2.42,4.7,4.7,0,0,1,2.14-1.62,8.77,8.77,0,0,1,3.3-.57,8.2,8.2,0,0,1,2.63.38,5.43,5.43,0,0,1,1.83,1,4.07,4.07,0,0,1,1.07,1.3,3.13,3.13,0,0,1,.34,1.34,1.56,1.56,0,0,1-.42,1.07,1.35,1.35,0,0,1-1,.48,1.14,1.14,0,0,1-.87-.29,3.75,3.75,0,0,1-.65-.93,4.31,4.31,0,0,0-1.08-1.46,3.14,3.14,0,0,0-2-.52,3.46,3.46,0,0,0-2.08.57,1.65,1.65,0,0,0-.8,1.36,1.4,1.4,0,0,0,.27.86,2.21,2.21,0,0,0,.75.61,4.62,4.62,0,0,0,1,.41c.32.09.85.24,1.6.42q1.38.33,2.52.72a7.82,7.82,0,0,1,1.92,1,3.92,3.92,0,0,1,1.23,1.42A4.47,4.47,0,0,1,172.46,424Z" transform="translate(0 -49.84)"/><path class="cls-6" d="M175.42,427.16v-13a2.15,2.15,0,0,1,.46-1.51,1.53,1.53,0,0,1,1.19-.51,1.61,1.61,0,0,1,1.22.5,2.16,2.16,0,0,1,.47,1.52v13a2.21,2.21,0,0,1-.47,1.53,1.58,1.58,0,0,1-1.22.51,1.5,1.5,0,0,1-1.18-.52A2.18,2.18,0,0,1,175.42,427.16Z" transform="translate(0 -49.84)"/><path class="cls-6" d="M186.83,414.17l6.41,9.7v-9.79a2.16,2.16,0,0,1,.41-1.43,1.55,1.55,0,0,1,2.24,0,2.11,2.11,0,0,1,.42,1.43V427c0,1.44-.6,2.17-1.8,2.17a2.55,2.55,0,0,1-.81-.13,2.24,2.24,0,0,1-.67-.41,4.2,4.2,0,0,1-.59-.66l-.53-.77-6.26-9.59v9.65a2,2,0,0,1-.44,1.42,1.41,1.41,0,0,1-1.12.49,1.44,1.44,0,0,1-1.13-.49,2.08,2.08,0,0,1-.43-1.42v-12.7a3.57,3.57,0,0,1,.18-1.27,1.78,1.78,0,0,1,.71-.83,1.94,1.94,0,0,1,1.06-.32,1.79,1.79,0,0,1,.77.15,1.71,1.71,0,0,1,.56.39,3.56,3.56,0,0,1,.5.64Z" transform="translate(0 -49.84)"/><path class="cls-6" d="M214,423.72a4.37,4.37,0,0,1-.39,1.7,6.13,6.13,0,0,1-1.22,1.79,6.2,6.2,0,0,1-2.12,1.44,7.77,7.77,0,0,1-3,.55,10.77,10.77,0,0,1-2.37-.25,6.78,6.78,0,0,1-1.94-.77,6.64,6.64,0,0,1-1.6-1.38,7.87,7.87,0,0,1-1.11-1.73,8.68,8.68,0,0,1-.69-2.05,10.77,10.77,0,0,1-.23-2.31,10.11,10.11,0,0,1,.58-3.56,7.43,7.43,0,0,1,1.65-2.69,7.17,7.17,0,0,1,2.53-1.71,8.32,8.32,0,0,1,3.09-.58,7.74,7.74,0,0,1,3.56.8,6.41,6.41,0,0,1,2.39,2,3.91,3.91,0,0,1,.83,2.22,1.44,1.44,0,0,1-.4,1,1.3,1.3,0,0,1-1,.44,1.35,1.35,0,0,1-1-.31,4.24,4.24,0,0,1-.71-1,5,5,0,0,0-1.54-1.83,3.68,3.68,0,0,0-2.17-.61,3.93,3.93,0,0,0-3.27,1.56,7,7,0,0,0-1.22,4.44,8.2,8.2,0,0,0,.54,3.19,4.1,4.1,0,0,0,1.52,1.91,4.22,4.22,0,0,0,2.32.63,4,4,0,0,0,2.43-.72,4.31,4.31,0,0,0,1.5-2.09,3.38,3.38,0,0,1,.53-1.06,1.17,1.17,0,0,1,1-.41,1.45,1.45,0,0,1,1,.41A1.41,1.41,0,0,1,214,423.72Z" transform="translate(0 -49.84)"/><path class="cls-6" d="M227.83,415h-7.51v4.05h6.92a1.64,1.64,0,0,1,1.14.34,1.16,1.16,0,0,1,.37.9,1.21,1.21,0,0,1-.37.92,1.62,1.62,0,0,1-1.14.35h-6.92v4.69h7.77a1.75,1.75,0,0,1,1.19.36,1.27,1.27,0,0,1,.39,1,1.24,1.24,0,0,1-.39.95,1.75,1.75,0,0,1-1.19.37H219a1.76,1.76,0,0,1-2.05-2.05V414.5a2.86,2.86,0,0,1,.22-1.18,1.31,1.31,0,0,1,.67-.66,2.77,2.77,0,0,1,1.16-.21h8.8a1.71,1.71,0,0,1,1.19.36,1.16,1.16,0,0,1,.38.92,1.21,1.21,0,0,1-.38.94A1.71,1.71,0,0,1,227.83,415Z" transform="translate(0 -49.84)"/><path class="cls-6" d="M247.16,426.27H253a2.14,2.14,0,0,1,1.34.35,1.17,1.17,0,0,1,.46,1,1.26,1.26,0,0,1-.37.93,1.43,1.43,0,0,1-1.1.39h-8.27a1.78,1.78,0,0,1-1.31-.47,1.48,1.48,0,0,1-.47-1.1,2.82,2.82,0,0,1,.3-1.07,4,4,0,0,1,.66-1c1-1,1.9-1.92,2.7-2.65a16.53,16.53,0,0,1,1.72-1.46,9.82,9.82,0,0,0,1.53-1.31,4.91,4.91,0,0,0,.93-1.34,3.29,3.29,0,0,0,.32-1.36,2.38,2.38,0,0,0-.34-1.28,2.41,2.41,0,0,0-.93-.89,2.85,2.85,0,0,0-1.29-.31,2.62,2.62,0,0,0-2.31,1.29,5.33,5.33,0,0,0-.38.92,3.78,3.78,0,0,1-.59,1.16,1.18,1.18,0,0,1-1,.4,1.27,1.27,0,0,1-.94-.37,1.38,1.38,0,0,1-.37-1,4.26,4.26,0,0,1,.35-1.61,4.48,4.48,0,0,1,1-1.53,5.05,5.05,0,0,1,1.75-1.11,6.76,6.76,0,0,1,2.49-.42,7.2,7.2,0,0,1,2.93.54,4.55,4.55,0,0,1,2.31,2.44,4.56,4.56,0,0,1,.33,1.71,4.82,4.82,0,0,1-.69,2.54,7.78,7.78,0,0,1-1.41,1.78c-.48.43-1.28,1.11-2.41,2a17.71,17.71,0,0,0-2.32,2.15A6,6,0,0,0,247.16,426.27Z" transform="translate(0 -49.84)"/><path class="cls-6" d="M268.27,420.84a19.35,19.35,0,0,1-.22,3.17,7.5,7.5,0,0,1-.83,2.4,5.57,5.57,0,0,1-2,2,5.28,5.28,0,0,1-2.69.71,5.2,5.2,0,0,1-3.07-1,5.9,5.9,0,0,1-2-2.67,9.09,9.09,0,0,1-.51-2.07,16.79,16.79,0,0,1-.17-2.44,23.29,23.29,0,0,1,.18-3,10.31,10.31,0,0,1,.56-2.34,5,5,0,0,1,4.95-3.31,5.65,5.65,0,0,1,2.1.37,4.76,4.76,0,0,1,1.65,1.11,6.05,6.05,0,0,1,1.21,1.79A12.83,12.83,0,0,1,268.27,420.84Zm-3.07-.22a19.18,19.18,0,0,0-.25-3.37,4.14,4.14,0,0,0-.83-2,2,2,0,0,0-1.62-.67,2.08,2.08,0,0,0-2.06,1.49,13.52,13.52,0,0,0-.58,4.61,19.14,19.14,0,0,0,.25,3.45,4.29,4.29,0,0,0,.83,2,2,2,0,0,0,1.58.69,2,2,0,0,0,1.62-.71,4.51,4.51,0,0,0,.82-2.06A20.56,20.56,0,0,0,265.2,420.62Z" transform="translate(0 -49.84)"/><path class="cls-6" d="M274.5,426.27h5.86a2.11,2.11,0,0,1,1.33.35,1.17,1.17,0,0,1,.46,1,1.29,1.29,0,0,1-.36.93,1.44,1.44,0,0,1-1.11.39h-8.26a1.82,1.82,0,0,1-1.32-.47,1.51,1.51,0,0,1-.47-1.1,2.69,2.69,0,0,1,.31-1.07,4,4,0,0,1,.66-1c1-1,1.89-1.92,2.69-2.65a17.68,17.68,0,0,1,1.72-1.46,9,9,0,0,0,1.53-1.31,5.19,5.19,0,0,0,.94-1.34,3.29,3.29,0,0,0,.32-1.36,2.39,2.39,0,0,0-.35-1.28,2.34,2.34,0,0,0-.93-.89,2.78,2.78,0,0,0-1.28-.31,2.64,2.64,0,0,0-2.32,1.29,5.66,5.66,0,0,0-.37.92A4,4,0,0,1,273,418a1.17,1.17,0,0,1-1,.4,1.23,1.23,0,0,1-.93-.37,1.34,1.34,0,0,1-.37-1,4.24,4.24,0,0,1,.34-1.61,4.62,4.62,0,0,1,1-1.53,5.1,5.1,0,0,1,1.76-1.11,6.67,6.67,0,0,1,2.48-.42,7.13,7.13,0,0,1,2.93.54,4.41,4.41,0,0,1,1.39,1,4.65,4.65,0,0,1,.92,1.45,4.56,4.56,0,0,1,.33,1.71,4.82,4.82,0,0,1-.69,2.54,7.78,7.78,0,0,1-1.41,1.78c-.48.43-1.28,1.11-2.41,2a17.46,17.46,0,0,0-2.31,2.15A5.13,5.13,0,0,0,274.5,426.27Z" transform="translate(0 -49.84)"/><path class="cls-6" d="M288.16,426.27H294a2.12,2.12,0,0,1,1.34.35,1.17,1.17,0,0,1,.46,1,1.29,1.29,0,0,1-.36.93,1.46,1.46,0,0,1-1.11.39h-8.26a1.8,1.8,0,0,1-1.32-.47,1.51,1.51,0,0,1-.47-1.1,2.82,2.82,0,0,1,.3-1.07,4.23,4.23,0,0,1,.67-1c1-1,1.89-1.92,2.69-2.65a16.53,16.53,0,0,1,1.72-1.46,9.82,9.82,0,0,0,1.53-1.31,4.91,4.91,0,0,0,.93-1.34,3.14,3.14,0,0,0,.32-1.36,2.38,2.38,0,0,0-.34-1.28,2.41,2.41,0,0,0-.93-.89,2.79,2.79,0,0,0-1.29-.31,2.62,2.62,0,0,0-2.31,1.29,6.36,6.36,0,0,0-.38.92,3.78,3.78,0,0,1-.59,1.16,1.18,1.18,0,0,1-1,.4,1.23,1.23,0,0,1-.93-.37,1.34,1.34,0,0,1-.37-1,4.24,4.24,0,0,1,.34-1.61,4.62,4.62,0,0,1,1-1.53,5.15,5.15,0,0,1,1.75-1.11,6.76,6.76,0,0,1,2.49-.42,7.16,7.16,0,0,1,2.93.54,4.26,4.26,0,0,1,1.38,1,4.5,4.5,0,0,1,.93,1.45,4.56,4.56,0,0,1,.33,1.71,4.82,4.82,0,0,1-.69,2.54,7.78,7.78,0,0,1-1.41,1.78c-.48.43-1.28,1.11-2.41,2a18.41,18.41,0,0,0-2.32,2.15A6,6,0,0,0,288.16,426.27Z" transform="translate(0 -49.84)"/><line class="cls-7" x1="158.64" y1="155.03" x2="185.18" y2="292.77"/><line class="cls-7" x1="280.59" y1="157.56" x2="257.52" y2="295.3"/><line class="cls-8" x1="185.18" y1="292.77" x2="257.54" y2="292.77"/><ellipse class="cls-9" cx="188.56" cy="235.19" rx="5.63" ry="5.77"/><ellipse class="cls-9" cx="186.32" cy="218.13" rx="5.63" ry="5.77"/><ellipse class="cls-9" cx="221.36" cy="270.68" rx="5.63" ry="5.77"/><ellipse class="cls-9" cx="211.62" cy="254.78" rx="5.63" ry="5.77"/><ellipse class="cls-9" cx="236.21" cy="282.22" rx="5.63" ry="5.77"/><ellipse class="cls-9" cx="190.81" cy="279.23" rx="5.63" ry="5.77"/><ellipse class="cls-9" cx="207.16" cy="262.86" rx="3.39" ry="3.47"/><ellipse class="cls-9" cx="230.72" cy="266.33" rx="3.39" ry="3.47"/><ellipse class="cls-9" cx="208.1" cy="272.29" rx="3.39" ry="3.47"/><ellipse class="cls-9" cx="203.16" cy="238.66" rx="3.39" ry="3.47"/><ellipse class="cls-9" cx="212.98" cy="285.69" rx="3.39" ry="3.47"/><ellipse class="cls-9" cx="224.06" cy="241.27" rx="5.45" ry="5.59"/><ellipse class="cls-9" cx="232.83" cy="252.27" rx="3.39" ry="3.47"/><ellipse class="cls-9" cx="191.95" cy="262.22" rx="3.39" ry="3.47"/><ellipse class="cls-9" cx="243.24" cy="235.68" rx="3.39" ry="3.47"/><ellipse class="cls-9" cx="198.69" cy="223.9" rx="3.39" ry="3.47"/><ellipse class="cls-9" cx="191.95" cy="248.8" rx="3.39" ry="3.47"/><ellipse class="cls-9" cx="194.19" cy="210.73" rx="3.39" ry="3.47"/><ellipse class="cls-9" cx="212.98" cy="228.74" rx="3.39" ry="3.47"/><path class="cls-10" d="M248,308.7l4.22,1a2.33,2.33,0,0,0,2.78-1.78l6.24-27.55a2.38,2.38,0,0,0-1.73-2.85l-4.22-1a2.32,2.32,0,0,0-2.78,1.77l-6.24,27.56A2.37,2.37,0,0,0,248,308.7Z" transform="translate(0 -49.84)"/><polygon points="198.35 263.48 207.64 267.37 281.36 84.69 272.07 80.8 198.35 263.48"/><line class="cls-7" x1="158.64" y1="155.03" x2="185.18" y2="292.77"/><line class="cls-8" x1="185.18" y1="292.77" x2="257.54" y2="292.77"/><path class="cls-11" d="M257.54,342.72H185.18c-5.29-28-15.13-78-20.41-106.05,11.37-10.55,27.64-13,39.94-12.73,15.33.31,31.47,12.5,43.28,16.81,11.11,4.06,26.31-8.35,27.11-8.86-2.14,12.78-7.81,52.61-10,65.39Q261.36,320,257.54,342.72Z" transform="translate(0 -49.84)"/><ellipse class="cls-9" cx="177.13" cy="216.46" rx="5.63" ry="5.77"/><ellipse class="cls-9" cx="248.6" cy="252.85" rx="5.63" ry="5.77"/><ellipse class="cls-9" cx="221.68" cy="276.01" rx="5.63" ry="5.77"/><ellipse class="cls-9" cx="248.6" cy="272.29" rx="5.63" ry="5.77"/><ellipse class="cls-9" cx="236.21" cy="282.22" rx="5.63" ry="5.77"/><ellipse class="cls-9" cx="190.81" cy="279.23" rx="5.63" ry="5.77"/><ellipse class="cls-9" cx="207.16" cy="262.86" rx="3.39" ry="3.47"/><ellipse class="cls-9" cx="230.72" cy="266.33" rx="3.39" ry="3.47"/><ellipse class="cls-9" cx="208.1" cy="272.29" rx="3.39" ry="3.47"/><ellipse class="cls-9" cx="203.16" cy="238.66" rx="3.39" ry="3.47"/><ellipse class="cls-9" cx="212.98" cy="285.69" rx="3.39" ry="3.47"/><ellipse class="cls-9" cx="216.8" cy="252.85" rx="5.45" ry="5.59"/><ellipse class="cls-9" cx="220.45" cy="214.09" rx="5.45" ry="5.59"/><ellipse class="cls-9" cx="232.83" cy="252.27" rx="3.39" ry="3.47"/><ellipse class="cls-9" cx="191.95" cy="262.22" rx="3.39" ry="3.47"/><ellipse class="cls-9" cx="243.24" cy="235.68" rx="3.39" ry="3.47"/><ellipse class="cls-9" cx="239.85" cy="212.98" rx="3.39" ry="3.47"/><ellipse class="cls-9" cx="253.77" cy="219.68" rx="3.39" ry="3.47"/><ellipse class="cls-9" cx="182.93" cy="246.86" rx="3.39" ry="3.47"/><ellipse class="cls-9" cx="204.71" cy="197.79" rx="3.39" ry="3.47"/><ellipse class="cls-9" cx="216.05" cy="233.82" rx="3.39" ry="3.47"/><ellipse class="cls-9" cx="232.83" cy="221.6" rx="3.39" ry="3.47"/><path class="cls-12" d="M192,305.43l7.32-1.37a4.25,4.25,0,0,0,3-5.2L191.8,245.52a4.36,4.36,0,0,0-4.8-3.74l-7.32,1.36c-2.15.4-3.52,2.75-3,5.21l10.54,53.33A4.37,4.37,0,0,0,192,305.43Z" transform="translate(0 -49.84)"/><path class="cls-13" d="M219.43,149.19a65.85,65.85,0,0,0-65.18,56.47h27.56s12.38-51.46,84.28-37.09A65.64,65.64,0,0,0,219.43,149.19Z" transform="translate(0 -49.84)"/><path class="cls-7" d="M219.43,149.19a65.85,65.85,0,0,0-65.18,56.47H284.61A65.85,65.85,0,0,0,219.43,149.19Z" transform="translate(0 -49.84)"/></g></g></svg>